<svg width="24" height="24" fill="none" xmlns="http://www.w3.org/2000/svg"><path d="M8.124 5.754c.774.784.774 1.763 0 2.542-.59.594-1.18 1.188-1.778 1.773-.165.16-.2.294-.09.489.21.385.38.794.609 1.164 1.084 1.723 2.477 3.166 4.045 4.444.78.635 1.613 1.2 2.552 1.594.19.08.315.064.47-.09.574-.595 1.163-1.174 1.753-1.758.819-.814 1.778-.814 2.602.005.47.464.929.929 1.398 1.393.48.48.964.954 1.438 1.438.764.784.764 1.763-.005 2.543-.589.599-1.193 1.173-1.773 1.782-.534.565-1.188.85-1.952.91-1.244.094-2.418-.21-3.561-.64-2.367-.879-4.47-2.217-6.398-3.84-2.607-2.193-4.67-4.81-6.157-7.871C.607 10.253.093 8.825.008 7.272c-.06-1.069.21-1.998 1.044-2.742.57-.51 1.088-1.084 1.633-1.623.809-.8 1.788-.804 2.587-.01a769.58 769.58 0 012.852 2.857zm3.98.953l.315-1.842a8.237 8.237 0 014.444 2.302 8.192 8.192 0 012.343 4.694l-1.853.26a6.355 6.355 0 00-1.813-3.636 6.355 6.355 0 00-3.436-1.778zm8.01-2.881A13.588 13.588 0 0124 11.616l-1.853.26a11.783 11.783 0 00-3.356-6.732 11.773 11.773 0 00-6.367-3.3L12.738 0a13.688 13.688 0 017.377 3.826z" fill="#7BA5E3"/></svg>