<svg width="28" height="27" viewBox="0 0 28 27" fill="none" xmlns="http://www.w3.org/2000/svg">
<g clip-path="url(#clip0)">
<path d="M23.0479 3.95451C20.4981 1.4047 17.1079 0.000488281 13.502 0.000488281C9.89598 0.000488281 6.50584 1.4047 3.95598 3.95451C1.40611 6.50432 0.00195312 9.89451 0.00195312 13.5005C0.00195312 16.2155 0.80109 18.8234 2.31562 21.0594L0.0383398 26.3733C-0.0324824 26.5385 0.00633008 26.7406 0.133156 26.868C0.264729 27.0001 0.476932 27.037 0.645418 26.9568L5.7268 24.5371C8.01009 26.1497 10.6923 27.0005 13.502 27.0005C17.1079 27.0005 20.4981 25.5963 23.0479 23.0465C25.5977 20.4966 27.002 17.1065 27.002 13.5005C27.002 9.89451 25.5977 6.50438 23.0479 3.95451Z" fill="#00C75E"/>
<path d="M13.5022 24.7509C19.7154 24.7509 24.7522 19.7142 24.7522 13.501C24.7522 7.28777 19.7154 2.25098 13.5022 2.25098C7.28899 2.25098 2.2522 7.28777 2.2522 13.501C2.2522 19.7142 7.28899 24.7509 13.5022 24.7509Z" fill="#F8F8F8"/>
<path d="M13.5015 23.4003C18.9692 23.4003 23.4015 18.9679 23.4015 13.5003C23.4015 8.03271 18.9692 3.60034 13.5015 3.60034C8.03394 3.60034 3.60156 8.03271 3.60156 13.5003C3.60156 18.9679 8.03394 23.4003 13.5015 23.4003Z" fill="white"/>
<path d="M20.6942 18.0695L20.2896 15.8778C20.2561 15.6968 20.1158 15.5544 19.9353 15.5183L16.7534 14.8819C16.6056 14.8524 16.4532 14.8986 16.3468 15.005L15.0541 16.2977C12.8761 15.3218 11.6672 14.1104 10.6035 11.8388L11.8921 10.5502C11.9985 10.4438 12.0447 10.2912 12.0152 10.1437L11.3788 6.96169C11.3427 6.78118 11.2002 6.64086 11.0192 6.60742L8.82749 6.20279C8.76748 6.19172 8.70567 6.19293 8.64608 6.20648C8.06738 6.338 7.53935 6.62957 7.11911 7.04992C6.39132 7.77771 6.1132 8.83962 6.3148 10.121C6.65325 12.2726 7.70746 15.267 9.65231 17.2196L9.67878 17.246C11.63 19.1895 14.6243 20.2437 16.7759 20.5822C17.047 20.6249 17.3081 20.646 17.5584 20.646C18.4915 20.646 19.2732 20.3517 19.8471 19.7779C20.2674 19.3575 20.559 18.8295 20.6905 18.2509C20.7041 18.1913 20.7053 18.1296 20.6942 18.0695Z" fill="#00C75E"/>
<path d="M18.4584 19.8505C18.208 19.8505 17.9469 19.8293 17.6759 19.7867C15.5243 19.4482 12.5299 18.394 10.5787 16.4504L10.5523 16.4241C8.60743 14.4715 7.55327 11.4771 7.21477 9.32551C7.03953 8.21186 7.22721 7.26422 7.75703 6.55737C7.52563 6.69264 7.31101 6.85738 7.11911 7.04928C6.39132 7.77707 6.1132 8.83898 6.3148 10.1204C6.65325 12.272 7.70746 15.2663 9.65231 17.2189L9.67878 17.2453C11.63 19.1888 14.6243 20.243 16.7759 20.5816C17.047 20.6242 17.3081 20.6454 17.5584 20.6454C18.4915 20.6454 19.2732 20.351 19.8471 19.7772C19.9512 19.6731 20.0473 19.5624 20.1352 19.4459C19.6581 19.7138 19.0933 19.8505 18.4584 19.8505Z" fill="#00B950"/>
</g>
<defs>
<clipPath id="clip0">
<rect width="27" height="27" fill="white" transform="translate(0.00195312 0.000488281)"/>
</clipPath>
</defs>
</svg>
