<svg width="35" height="34" viewBox="0 0 35 34" fill="none" xmlns="http://www.w3.org/2000/svg">
<g opacity="0.7" clip-path="url(#clip0)">
<path d="M23.5286 20.1756C27.6099 14.4124 26.245 6.43206 20.4818 2.3517C14.7186 -1.72866 6.73821 -0.364639 2.65785 5.39954C-1.42251 11.1627 -0.0584866 19.1421 5.70569 23.2225C9.8192 26.1348 15.2577 26.359 19.5965 23.7967L29.0237 33.1674C30.0416 34.2389 31.7352 34.2818 32.8067 33.2639C33.8782 32.247 33.9211 30.5535 32.9042 29.4819C32.872 29.4478 32.8408 29.4166 32.8067 29.3844L23.5286 20.1756ZM13.0854 21.0492C8.53123 21.0502 4.83892 17.3608 4.83599 12.8066C4.83502 8.25237 8.5244 4.56007 13.0796 4.55812C17.6279 4.55617 21.3183 8.2397 21.3271 12.7881C21.3349 17.3432 17.6474 21.0414 13.0913 21.0492C13.0893 21.0492 13.0884 21.0492 13.0854 21.0492Z" fill="#002958"/>
</g>
<defs>
<clipPath id="clip0">
<rect width="34" height="34" fill="white" transform="translate(0.00195312)"/>
</clipPath>
</defs>
</svg>
