<svg width="69" height="68" viewBox="0 0 69 68" fill="none" xmlns="http://www.w3.org/2000/svg">
<g clip-path="url(#clip0)">
<path d="M63.2304 62.1475H3.74322C1.39242 62.1475 -0.513184 60.2419 -0.513184 57.8911V10.1095C-0.513184 7.75884 1.39242 5.8531 3.74322 5.8531H63.2304C65.5811 5.8531 67.4868 7.7587 67.4868 10.1095V57.8912C67.4868 60.2419 65.5812 62.1475 63.2304 62.1475Z" fill="url(#paint0_linear)"/>
<path d="M63.7456 5.8531H4.25835C1.90755 5.8531 0.00195312 7.7587 0.00195312 10.1095V19.5716H62.532V57.8912C62.532 60.2419 60.6264 62.1476 58.2756 62.1476H63.7454C66.0961 62.1476 68.0018 60.242 68.0018 57.8912V10.1095C68.002 7.7587 66.0964 5.8531 63.7456 5.8531Z" fill="url(#paint1_linear)"/>
<path d="M68.002 16.2368H0.00195312V10.1095C0.00195312 7.75884 1.90755 5.8531 4.25835 5.8531H63.7456C66.0962 5.8531 68.002 7.7587 68.002 10.1095V16.2368Z" fill="url(#paint2_linear)"/>
<path d="M63.7456 5.8531H58.4095C60.7604 5.8531 62.666 7.7587 62.666 10.1095V16.2368H68.002V10.1095C68.002 7.7587 66.0964 5.8531 63.7456 5.8531Z" fill="url(#paint3_linear)"/>
<path d="M5.33571 13.7586C6.85889 13.7586 8.09366 12.5239 8.09366 11.0007C8.09366 9.4775 6.85889 8.24272 5.33571 8.24272C3.81254 8.24272 2.57776 9.4775 2.57776 11.0007C2.57776 12.5239 3.81254 13.7586 5.33571 13.7586Z" fill="url(#paint4_linear)"/>
<path d="M5.33551 12.8717C6.36885 12.8717 7.20654 12.034 7.20654 11.0007C7.20654 9.96733 6.36885 9.12964 5.33551 9.12964C4.30217 9.12964 3.46448 9.96733 3.46448 11.0007C3.46448 12.034 4.30217 12.8717 5.33551 12.8717Z" fill="url(#paint5_linear)"/>
<path d="M11.7869 13.7586C13.3101 13.7586 14.5448 12.5239 14.5448 11.0007C14.5448 9.4775 13.3101 8.24272 11.7869 8.24272C10.2637 8.24272 9.02893 9.4775 9.02893 11.0007C9.02893 12.5239 10.2637 13.7586 11.7869 13.7586Z" fill="url(#paint6_linear)"/>
<path d="M11.7867 12.8717C12.82 12.8717 13.6577 12.034 13.6577 11.0007C13.6577 9.96733 12.82 9.12964 11.7867 9.12964C10.7533 9.12964 9.91565 9.96733 9.91565 11.0007C9.91565 12.034 10.7533 12.8717 11.7867 12.8717Z" fill="url(#paint7_linear)"/>
<path d="M18.2378 13.7586C19.761 13.7586 20.9958 12.5239 20.9958 11.0007C20.9958 9.4775 19.761 8.24272 18.2378 8.24272C16.7146 8.24272 15.4799 9.4775 15.4799 11.0007C15.4799 12.5239 16.7146 13.7586 18.2378 13.7586Z" fill="url(#paint8_linear)"/>
<path d="M18.2376 12.8717C19.2709 12.8717 20.1086 12.034 20.1086 11.0007C20.1086 9.96733 19.2709 9.12964 18.2376 9.12964C17.2043 9.12964 16.3666 9.96733 16.3666 11.0007C16.3666 12.034 17.2043 12.8717 18.2376 12.8717Z" fill="url(#paint9_linear)"/>
<path d="M16.566 44.1958C15.474 44.1958 14.578 43.8878 13.878 43.2718C13.178 42.6558 12.828 41.8298 12.828 40.7938V34.1998H14.746V40.6398C14.746 41.1532 14.8906 41.5592 15.18 41.8578C15.4786 42.1565 15.9406 42.3058 16.566 42.3058C17.1913 42.3058 17.6486 42.1565 17.938 41.8578C18.2366 41.5592 18.386 41.1532 18.386 40.6398V34.1998H20.318V40.7938C20.318 41.8298 19.968 42.6558 19.268 43.2718C18.568 43.8878 17.6673 44.1958 16.566 44.1958ZM29.37 43.9998H27.172L25.268 40.8078L23.364 43.9998H21.18L24.176 38.9738L21.334 34.1998H23.518L25.268 37.1398L27.018 34.1998H29.202L26.36 38.9598L29.37 43.9998ZM30.803 45.3998H30.005L35.605 32.7998H36.403L30.803 45.3998ZM41.4351 44.1958C40.3431 44.1958 39.4471 43.8878 38.7471 43.2718C38.0471 42.6558 37.6971 41.8298 37.6971 40.7938V34.1998H39.6151V40.6398C39.6151 41.1532 39.7598 41.5592 40.0491 41.8578C40.3478 42.1565 40.8098 42.3058 41.4351 42.3058C42.0604 42.3058 42.5178 42.1565 42.8071 41.8578C43.1058 41.5592 43.2551 41.1532 43.2551 40.6398V34.1998H45.1871V40.7938C45.1871 41.8298 44.8371 42.6558 44.1371 43.2718C43.4371 43.8878 42.5364 44.1958 41.4351 44.1958ZM46.9276 34.1998H48.8596V43.9998H46.9276V34.1998Z" fill="url(#paint10_linear)"/>
</g>
<defs>
<linearGradient id="paint0_linear" x1="-0.299584" y1="34.0003" x2="66.4978" y2="34.0003" gradientUnits="userSpaceOnUse">
<stop stop-color="#D5E6FF"/>
<stop stop-color="#F6F9FD"/>
<stop offset="0.0001" stop-color="#FAFCFF"/>
<stop offset="0.593" stop-color="#E7F3FF"/>
<stop offset="1" stop-color="#E1EAF9"/>
</linearGradient>
<linearGradient id="paint1_linear" x1="0.215553" y1="34.0003" x2="67.0129" y2="34.0003" gradientUnits="userSpaceOnUse">
<stop stop-color="#E6EEF3"/>
<stop offset="1" stop-color="#B0CCF9"/>
</linearGradient>
<linearGradient id="paint2_linear" x1="-9.53852" y1="11.045" x2="81.1332" y2="11.045" gradientUnits="userSpaceOnUse">
<stop stop-color="#CDDEFA"/>
<stop offset="1" stop-color="#92B8F3"/>
</linearGradient>
<linearGradient id="paint3_linear" x1="57.0637" y1="11.045" x2="69.8543" y2="11.045" gradientUnits="userSpaceOnUse">
<stop stop-color="#91B7F3"/>
<stop offset="1" stop-color="#78A1E2"/>
</linearGradient>
<linearGradient id="paint4_linear" x1="1.80387" y1="11.0007" x2="9.15882" y2="11.0007" gradientUnits="userSpaceOnUse">
<stop stop-color="#CDDEFA"/>
<stop offset="1" stop-color="#92B8F3"/>
</linearGradient>
<linearGradient id="paint5_linear" x1="2.93946" y1="11.0007" x2="7.92915" y2="11.0007" gradientUnits="userSpaceOnUse">
<stop stop-color="#B2CFFE"/>
<stop offset="1" stop-color="#6591D7"/>
</linearGradient>
<linearGradient id="paint6_linear" x1="8.25504" y1="11.0007" x2="15.61" y2="11.0007" gradientUnits="userSpaceOnUse">
<stop stop-color="#CDDEFA"/>
<stop offset="1" stop-color="#92B8F3"/>
</linearGradient>
<linearGradient id="paint7_linear" x1="9.91565" y1="11.0007" x2="13.6577" y2="11.0007" gradientUnits="userSpaceOnUse">
<stop stop-color="#FAFCFF"/>
<stop offset="0.593" stop-color="#CAE2FA"/>
<stop offset="1" stop-color="#BCD7F8"/>
</linearGradient>
<linearGradient id="paint8_linear" x1="14.706" y1="11.0007" x2="22.0609" y2="11.0007" gradientUnits="userSpaceOnUse">
<stop stop-color="#CDDEFA"/>
<stop offset="1" stop-color="#92B8F3"/>
</linearGradient>
<linearGradient id="paint9_linear" x1="16.3666" y1="11.0007" x2="20.1086" y2="11.0007" gradientUnits="userSpaceOnUse">
<stop stop-color="#FAFCFF"/>
<stop offset="0.593" stop-color="#CAE2FA"/>
<stop offset="1" stop-color="#BCD7F8"/>
</linearGradient>
<linearGradient id="paint10_linear" x1="6.67052" y1="39.0001" x2="57.3399" y2="39.0001" gradientUnits="userSpaceOnUse">
<stop stop-color="#80AEF5"/>
<stop offset="1" stop-color="#8BB4F3"/>
</linearGradient>
<clipPath id="clip0">
<rect width="68" height="68" fill="white" transform="translate(0.00195312 0.000305176)"/>
</clipPath>
</defs>
</svg>
