<svg width="1707" height="636" viewBox="0 0 1707 636" fill="none" xmlns="http://www.w3.org/2000/svg">
<g opacity="0.1">
<path d="M-5.49805 29.6147C-5.49805 29.6147 280.643 405.145 571.241 376.547C861.839 347.948 815.674 181.046 1099.95 48.8366C1240.05 -16.3153 1405.04 -4.36746 1462.96 29.6147C1609.58 115.634 1653.18 238.596 1656 316.547C1667.5 634 1037 634 1037 634" stroke="#002958" stroke-width="4" stroke-dasharray="5 5"/>
<path d="M-5.49805 29.6147C-5.49805 29.6147 280.643 405.145 571.241 376.547C861.839 347.948 815.674 181.046 1099.95 48.8366C1240.05 -16.3153 1405.04 -4.36746 1462.96 29.6147C1609.58 115.634 1653.18 238.596 1656 316.547C1667.5 634 1037 634 1037 634" stroke="url(#paint0_linear)" stroke-width="4" stroke-dasharray="5 5"/>
</g>
<g clip-path="url(#clip0)">
<path d="M722.298 342.39L660.726 376.909L645.15 365.593L723.159 338.386L723.475 339.296C723.883 340.476 723.388 341.779 722.298 342.39Z" fill="#8CB6F0"/>
<path d="M645.15 365.593L650.393 347.069L720.109 336.121C721.353 335.926 722.558 336.649 722.97 337.839L723.28 338.733L645.15 365.593ZM660.726 376.909L665.682 375.193L660.531 365.124L660.726 376.909Z" fill="#6691D5"/>
<path d="M658.008 357.838L650.393 347.069L654.904 345.507L658.008 357.838Z" fill="#5C8CD7"/>
<path d="M722.981 337.87L658.01 357.843L648.214 329.553C647.77 328.273 648.819 326.97 650.165 327.129L719.931 335.415C721.334 335.582 722.518 336.535 722.981 337.87ZM723.458 339.249L660.53 365.12L669.845 392.021C670.289 393.301 671.919 393.677 672.878 392.719L722.58 343.064C723.579 342.065 723.92 340.583 723.458 339.249Z" fill="url(#paint1_linear)"/>
<path d="M722.58 343.064L694.606 371.012C689.608 376.005 681.108 374.049 678.796 367.373C677.135 362.577 679.507 357.318 684.201 355.388L723.458 339.249C723.921 340.584 723.579 342.065 722.58 343.064ZM719.931 335.415L680.664 330.752C673.648 329.918 668.179 336.712 670.491 343.388L670.79 344.252C672.477 349.124 677.719 351.784 682.647 350.269L722.981 337.87C722.519 336.535 721.334 335.582 719.931 335.415Z" fill="url(#paint2_linear)"/>
</g>
<g clip-path="url(#clip1)">
<path d="M1651.69 302.113L1622.54 237.822L1635.15 223.268L1655.6 303.312L1654.67 303.548C1653.46 303.855 1652.2 303.25 1651.69 302.113Z" fill="#8CB6F0"/>
<path d="M1635.15 223.268L1653.16 230.07L1658.12 300.466C1658.21 301.722 1657.39 302.861 1656.17 303.17L1655.25 303.402L1635.15 223.268ZM1622.54 237.822L1623.83 242.906L1634.3 238.633L1622.54 237.822Z" fill="#6691D5"/>
<path d="M1641.78 236.74L1653.16 230.07L1654.33 234.698L1641.78 236.74Z" fill="#5C8CD7"/>
<path d="M1656.13 303.178L1641.77 236.741L1670.79 229.392C1672.11 229.059 1673.32 230.215 1673.04 231.543L1658.84 300.349C1658.55 301.732 1657.5 302.831 1656.13 303.178ZM1654.72 303.536L1634.31 238.631L1606.71 245.62C1605.4 245.953 1604.88 247.545 1605.75 248.582L1650.99 302.336C1651.9 303.417 1653.35 303.883 1654.72 303.536Z" fill="url(#paint3_linear)"/>
<path d="M1650.99 302.336L1625.53 272.081C1620.98 266.676 1623.66 258.373 1630.5 256.639C1635.42 255.393 1640.46 258.204 1641.98 263.046L1654.72 303.536C1653.35 303.883 1651.9 303.417 1650.99 302.336ZM1658.84 300.349L1666.83 261.622C1668.26 254.703 1661.96 248.674 1655.11 250.408L1654.22 250.633C1649.23 251.898 1646.13 256.895 1647.22 261.934L1656.13 303.178C1657.5 302.831 1658.55 301.733 1658.84 300.349Z" fill="url(#paint4_linear)"/>
</g>
<defs>
<linearGradient id="paint0_linear" x1="-41.9981" y1="258.5" x2="555.502" y2="406.5" gradientUnits="userSpaceOnUse">
<stop stop-color="white"/>
<stop offset="1" stop-color="white" stop-opacity="0"/>
</linearGradient>
<linearGradient id="paint1_linear" x1="651.412" y1="342.793" x2="714.805" y2="373.575" gradientUnits="userSpaceOnUse">
<stop stop-color="#CCDDFF"/>
<stop offset="0.5484" stop-color="#CCDFFC"/>
<stop offset="1" stop-color="#E1E9F8"/>
</linearGradient>
<linearGradient id="paint2_linear" x1="661.662" y1="361.859" x2="725.079" y2="338.245" gradientUnits="userSpaceOnUse">
<stop stop-color="#B8D2F1"/>
<stop offset="0.593" stop-color="#CAE2FA"/>
<stop offset="1" stop-color="#FAFCFF"/>
</linearGradient>
<linearGradient id="paint3_linear" x1="1657.33" y1="231.45" x2="1621.26" y2="291.989" gradientUnits="userSpaceOnUse">
<stop stop-color="#CCDDFF"/>
<stop offset="0.5484" stop-color="#CCDFFC"/>
<stop offset="1" stop-color="#E1E9F8"/>
</linearGradient>
<linearGradient id="paint4_linear" x1="1637.46" y1="240.038" x2="1655.58" y2="305.236" gradientUnits="userSpaceOnUse">
<stop stop-color="#B8D2F1"/>
<stop offset="0.593" stop-color="#CAE2FA"/>
<stop offset="1" stop-color="#FAFCFF"/>
</linearGradient>
<clipPath id="clip0">
<rect width="94" height="94" fill="white" transform="translate(651.957 292.896) rotate(25.8999)"/>
</clipPath>
<clipPath id="clip1">
<rect width="94" height="94" fill="white" transform="matrix(-0.511887 0.859053 -0.859052 -0.511888 1707 236.246)"/>
</clipPath>
</defs>
</svg>
