<svg width="69" height="68" viewBox="0 0 69 68" fill="none" xmlns="http://www.w3.org/2000/svg">
<g clip-path="url(#clip0)">
<path d="M61.3356 11.3337H6.66895V7.80033C6.66895 6.06979 8.07175 4.66699 9.80228 4.66699H58.2023C59.9328 4.66699 61.3356 6.06979 61.3356 7.80033V11.3337Z" fill="url(#paint0_linear)"/>
<path d="M64.669 17.3333H3.33569V13.8C3.33569 12.0694 4.73849 10.6666 6.46903 10.6666H61.5357C63.2662 10.6666 64.669 12.0694 64.669 13.8V17.3333Z" fill="url(#paint1_linear)"/>
<path d="M63.7459 63.3328H4.25872C1.90792 63.3328 0.00231934 61.4272 0.00231934 59.0764V20.9225C0.00231934 18.5719 1.90792 16.6661 4.25872 16.6661H63.7459C66.0966 16.6661 68.0023 18.5717 68.0023 20.9225V59.0764C68.0023 61.4272 66.0967 63.3328 63.7459 63.3328Z" fill="url(#paint2_linear)"/>
<path d="M63.7459 16.6661H58.2759C60.6265 16.6661 62.5323 18.5717 62.5323 20.9225V59.0765C62.5323 61.4272 60.6267 63.3329 58.2759 63.3329H63.7459C66.0965 63.3329 68.0023 61.4273 68.0023 59.0765V20.9225C68.0023 18.5717 66.0967 16.6661 63.7459 16.6661Z" fill="url(#paint3_linear)"/>
<path d="M5.16796 27.9076C7.32783 27.1203 9.03929 25.3727 9.80796 23.1692C10.2021 22.0394 11.291 21.3003 12.4876 21.3003H55.5172C56.7137 21.3003 57.8028 22.0395 58.1968 23.1692C58.9653 25.3727 60.6769 27.1203 62.8368 27.9076C63.948 28.3127 64.669 29.3928 64.669 30.5755V49.4234C64.669 50.6062 63.948 51.6863 62.8368 52.0912C60.6769 52.8786 58.9654 54.6262 58.1968 56.8296C57.8026 57.9595 56.7137 58.6986 55.5172 58.6986H12.4876C11.291 58.6986 10.202 57.9594 9.80796 56.8296C9.03943 54.6262 7.32783 52.8786 5.16796 52.0912C4.05676 51.6863 3.33569 50.6062 3.33569 49.4234V30.5756C3.33569 29.3928 4.05676 28.3127 5.16796 27.9076Z" fill="url(#paint4_linear)"/>
<path d="M34.0023 53.3328C41.3661 53.3328 47.3356 47.3633 47.3356 39.9995C47.3356 32.6357 41.3661 26.6661 34.0023 26.6661C26.6385 26.6661 20.6689 32.6357 20.6689 39.9995C20.6689 47.3633 26.6385 53.3328 34.0023 53.3328Z" fill="url(#paint5_linear)"/>
<path d="M34.0024 26.6661C33.0885 26.6661 32.1962 26.7583 31.3341 26.9335C37.4193 28.1695 41.9992 33.5496 41.9992 39.9995C41.9992 46.4493 37.4193 51.8295 31.3341 53.0655C32.1962 53.2405 33.0885 53.3328 34.0024 53.3328C41.3661 53.3328 47.3357 47.3633 47.3357 39.9995C47.3357 32.6356 41.3661 26.6661 34.0024 26.6661Z" fill="url(#paint6_linear)"/>
<path d="M15.0468 37.6663H9.04683C7.75817 37.6663 6.7135 38.7109 6.7135 39.9996C6.7135 41.2883 7.75817 42.3329 9.04683 42.3329H15.0468C16.3355 42.3329 17.3802 41.2883 17.3802 39.9996C17.3802 38.7109 16.3355 37.6663 15.0468 37.6663Z" fill="url(#paint7_linear)"/>
<path d="M58.958 37.6663H52.958C51.6693 37.6663 50.6246 38.7109 50.6246 39.9996C50.6246 41.2883 51.6693 42.3329 52.958 42.3329H58.958C60.2466 42.3329 61.2913 41.2883 61.2913 39.9996C61.2913 38.7109 60.2466 37.6663 58.958 37.6663Z" fill="url(#paint8_linear)"/>
<path d="M62.8366 27.9078C62.7338 27.8703 62.633 27.8287 62.5323 27.7869V52.2123C62.633 52.1706 62.7338 52.129 62.8366 52.0914C63.9478 51.6863 64.6689 50.6062 64.6689 49.4235V30.5758C64.6689 29.393 63.9478 28.3129 62.8366 27.9078Z" fill="url(#paint9_linear)"/>
<g clip-path="url(#clip1)">
<path d="M34.4712 53.4621C41.8528 53.4621 47.8368 47.4782 47.8368 40.0966C47.8368 32.715 41.8528 26.7311 34.4712 26.7311C27.0897 26.7311 21.1057 32.715 21.1057 40.0966C21.1057 47.4782 27.0897 53.4621 34.4712 53.4621Z" fill="url(#paint10_linear)"/>
<path d="M34.4712 26.7311C34.1182 26.7311 33.7685 26.745 33.4224 26.7719C40.3137 27.3068 45.7391 33.068 45.7391 40.0966C45.7391 47.1252 40.3137 52.8864 33.4224 53.4213C33.7685 53.4482 34.1182 53.4621 34.4712 53.4621C41.8528 53.4621 47.8367 47.4782 47.8367 40.0966C47.8367 32.715 41.8528 26.7311 34.4712 26.7311Z" fill="url(#paint11_linear)"/>
<path d="M34.4711 49.537C39.6848 49.537 43.9114 45.3104 43.9114 40.0967C43.9114 34.883 39.6848 30.6565 34.4711 30.6565C29.2574 30.6565 25.0309 34.883 25.0309 40.0967C25.0309 45.3104 29.2574 49.537 34.4711 49.537Z" fill="url(#paint12_linear)"/>
<path d="M34.4712 30.6565C34.1166 30.6565 33.7668 30.6767 33.4224 30.7148C38.1424 31.2366 41.8138 35.2376 41.8138 40.0967C41.8138 44.9558 38.1424 48.9568 33.4224 49.4786C33.7668 49.5167 34.1166 49.5369 34.4712 49.5369C39.6849 49.5369 43.9114 45.3103 43.9114 40.0966C43.9114 34.8829 39.6849 30.6565 34.4712 30.6565Z" fill="url(#paint13_linear)"/>
<path d="M35.3392 38.6648V36.0518C36.5026 36.1412 36.8426 36.714 37.4331 36.714C38.2207 36.714 38.5428 35.7296 38.5428 35.2464C38.5428 34.0115 36.4488 33.7251 35.3392 33.6893V33.2419C35.3392 32.9913 34.9991 32.7587 34.6591 32.7587C34.2654 32.7587 33.979 32.9913 33.979 33.2419V33.743C32.0819 34.0114 30.3995 35.1032 30.3995 37.3762C30.3995 39.667 32.3324 40.4366 33.979 41.063V43.9624C32.6546 43.7297 32.0461 42.6738 31.2943 42.6738C30.6143 42.6738 30.0774 43.5686 30.0774 44.1771C30.0774 45.3226 31.8313 46.4322 33.979 46.5038V46.9512C33.979 47.2018 34.2654 47.4344 34.6591 47.4344C34.9992 47.4344 35.3392 47.2018 35.3392 46.9512V46.4321C37.4331 46.0921 38.8649 44.7498 38.8649 42.5305C38.865 40.1145 36.9678 39.2733 35.3392 38.6648ZM34.158 38.2353C33.4779 37.9489 33.0125 37.6268 33.0125 37.1078C33.0125 36.6782 33.3526 36.2666 34.158 36.1055V38.2353ZM35.1602 43.9445V41.5463C35.8045 41.8505 36.2519 42.2263 36.2519 42.817C36.252 43.4613 35.7687 43.8013 35.1602 43.9445Z" fill="url(#paint14_linear)"/>
</g>
</g>
<defs>
<linearGradient id="paint0_linear" x1="6.66895" y1="8.00034" x2="61.3356" y2="8.00034" gradientUnits="userSpaceOnUse">
<stop stop-color="#FAFCFF"/>
<stop offset="0.593" stop-color="#CAE2FA"/>
<stop offset="1" stop-color="#BCD7F8"/>
</linearGradient>
<linearGradient id="paint1_linear" x1="3.33569" y1="14" x2="64.669" y2="14" gradientUnits="userSpaceOnUse">
<stop stop-color="#DCEDFF"/>
<stop offset="0.593" stop-color="#B4D9FD"/>
<stop offset="1" stop-color="#9BC7FD"/>
</linearGradient>
<linearGradient id="paint2_linear" x1="-9.53815" y1="39.9995" x2="81.1336" y2="39.9995" gradientUnits="userSpaceOnUse">
<stop stop-color="#98C0FE"/>
<stop offset="1" stop-color="#6591D7"/>
</linearGradient>
<linearGradient id="paint3_linear" x1="53.469" y1="39.9995" x2="67.2029" y2="39.9995" gradientUnits="userSpaceOnUse">
<stop stop-color="#7495C9"/>
<stop offset="0.609375" stop-color="#6690D0"/>
<stop offset="1" stop-color="#6691D0"/>
</linearGradient>
<linearGradient id="paint4_linear" x1="71.1016" y1="39.9995" x2="-3.04164" y2="39.9995" gradientUnits="userSpaceOnUse">
<stop stop-color="#98C5FF"/>
<stop offset="0.354167" stop-color="#95C5FB"/>
<stop offset="1" stop-color="#B7D6F8"/>
</linearGradient>
<linearGradient id="paint5_linear" x1="20.6689" y1="39.9995" x2="47.3356" y2="39.9995" gradientUnits="userSpaceOnUse">
<stop stop-color="#FAFCFF"/>
<stop offset="0.593" stop-color="#CAE2FA"/>
<stop offset="1" stop-color="#BCD7F8"/>
</linearGradient>
<linearGradient id="paint6_linear" x1="33.3357" y1="39.9995" x2="48.6696" y2="39.9995" gradientUnits="userSpaceOnUse">
<stop stop-color="#C0D5FF"/>
<stop offset="0.5484" stop-color="#94BBF4"/>
<stop offset="1" stop-color="#93B4F5"/>
</linearGradient>
<linearGradient id="paint7_linear" x1="6.7135" y1="39.9996" x2="17.3802" y2="39.9996" gradientUnits="userSpaceOnUse">
<stop stop-color="#FAFCFF"/>
<stop offset="0.593" stop-color="#CAE2FA"/>
<stop offset="1" stop-color="#BCD7F8"/>
</linearGradient>
<linearGradient id="paint8_linear" x1="50.6246" y1="39.9996" x2="61.2913" y2="39.9996" gradientUnits="userSpaceOnUse">
<stop stop-color="#FAFCFF"/>
<stop offset="0.593" stop-color="#CAE2FA"/>
<stop offset="1" stop-color="#BCD7F8"/>
</linearGradient>
<linearGradient id="paint9_linear" x1="50.9355" y1="39.9997" x2="62.5363" y2="39.9997" gradientUnits="userSpaceOnUse">
<stop stop-color="#09A755"/>
<stop offset="0.6075" stop-color="#01998D"/>
<stop offset="1" stop-color="#3E639B"/>
</linearGradient>
<linearGradient id="paint10_linear" x1="21.1057" y1="40.0967" x2="47.8368" y2="40.0967" gradientUnits="userSpaceOnUse">
<stop stop-color="#FAFCFF"/>
<stop offset="0.593" stop-color="#CAE2FA"/>
<stop offset="1" stop-color="#BCD7F8"/>
</linearGradient>
<linearGradient id="paint11_linear" x1="35.2254" y1="40.0966" x2="49.0382" y2="40.0966" gradientUnits="userSpaceOnUse">
<stop stop-color="#C8DAFF"/>
<stop offset="0.5484" stop-color="#A7CAFF"/>
<stop offset="1" stop-color="#93B4F5"/>
</linearGradient>
<linearGradient id="paint12_linear" x1="27.3926" y1="40.0967" x2="45.4852" y2="40.0967" gradientUnits="userSpaceOnUse">
<stop stop-color="#C0D5FF"/>
<stop offset="0.5484" stop-color="#94BBF4"/>
<stop offset="1" stop-color="#93B4F5"/>
</linearGradient>
<linearGradient id="paint13_linear" x1="31.1691" y1="40.0967" x2="45.8543" y2="40.0967" gradientUnits="userSpaceOnUse">
<stop stop-color="#BCD3F7"/>
<stop offset="1" stop-color="#6895DB"/>
</linearGradient>
<linearGradient id="paint14_linear" x1="30.0774" y1="40.0966" x2="38.8649" y2="40.0966" gradientUnits="userSpaceOnUse">
<stop stop-color="#FAFCFF"/>
<stop offset="0.593" stop-color="#CAE2FA"/>
<stop offset="1" stop-color="#BCD7F8"/>
</linearGradient>
<clipPath id="clip0">
<rect width="68" height="68" fill="white" transform="translate(0.00231934)"/>
</clipPath>
<clipPath id="clip1">
<rect width="26.731" height="26.731" fill="white" transform="translate(21.1057 26.7311)"/>
</clipPath>
</defs>
</svg>
