<svg width="69" height="68" viewBox="0 0 69 68" fill="none" xmlns="http://www.w3.org/2000/svg">
<g clip-path="url(#clip0)">
<path d="M63.2304 62.1475H3.74322C1.39242 62.1475 -0.513184 60.2419 -0.513184 57.8911V10.1095C-0.513184 7.75882 1.39242 5.85309 3.74322 5.85309H63.2304C65.5811 5.85309 67.4868 7.75869 67.4868 10.1095V57.8912C67.4868 60.2419 65.5812 62.1475 63.2304 62.1475Z" fill="url(#paint0_linear)"/>
<path d="M63.7456 5.85309H4.25835C1.90755 5.85309 0.00195312 7.75869 0.00195312 10.1095V19.5716H62.532V57.8912C62.532 60.2419 60.6264 62.1476 58.2756 62.1476H63.7454C66.0961 62.1476 68.0018 60.242 68.0018 57.8912V10.1095C68.002 7.75869 66.0964 5.85309 63.7456 5.85309Z" fill="url(#paint1_linear)"/>
<path d="M68.002 16.2368H0.00195312V10.1095C0.00195312 7.75882 1.90755 5.85309 4.25835 5.85309H63.7456C66.0962 5.85309 68.002 7.75869 68.002 10.1095V16.2368Z" fill="url(#paint2_linear)"/>
<path d="M63.7456 5.85309H58.4095C60.7604 5.85309 62.666 7.75869 62.666 10.1095V16.2368H68.002V10.1095C68.002 7.75869 66.0964 5.85309 63.7456 5.85309Z" fill="url(#paint3_linear)"/>
<path d="M5.33571 13.7586C6.85889 13.7586 8.09366 12.5239 8.09366 11.0007C8.09366 9.47751 6.85889 8.24274 5.33571 8.24274C3.81254 8.24274 2.57776 9.47751 2.57776 11.0007C2.57776 12.5239 3.81254 13.7586 5.33571 13.7586Z" fill="url(#paint4_linear)"/>
<path d="M5.33551 12.8717C6.36885 12.8717 7.20654 12.034 7.20654 11.0007C7.20654 9.96733 6.36885 9.12964 5.33551 9.12964C4.30217 9.12964 3.46448 9.96733 3.46448 11.0007C3.46448 12.034 4.30217 12.8717 5.33551 12.8717Z" fill="url(#paint5_linear)"/>
<path d="M11.7869 13.7586C13.3101 13.7586 14.5448 12.5239 14.5448 11.0007C14.5448 9.47751 13.3101 8.24274 11.7869 8.24274C10.2637 8.24274 9.02893 9.47751 9.02893 11.0007C9.02893 12.5239 10.2637 13.7586 11.7869 13.7586Z" fill="url(#paint6_linear)"/>
<path d="M11.7867 12.8717C12.82 12.8717 13.6577 12.034 13.6577 11.0007C13.6577 9.96733 12.82 9.12964 11.7867 9.12964C10.7533 9.12964 9.91565 9.96733 9.91565 11.0007C9.91565 12.034 10.7533 12.8717 11.7867 12.8717Z" fill="url(#paint7_linear)"/>
<path d="M18.2378 13.7586C19.761 13.7586 20.9958 12.5239 20.9958 11.0007C20.9958 9.47751 19.761 8.24274 18.2378 8.24274C16.7146 8.24274 15.4799 9.47751 15.4799 11.0007C15.4799 12.5239 16.7146 13.7586 18.2378 13.7586Z" fill="url(#paint8_linear)"/>
<path d="M18.2376 12.8717C19.2709 12.8717 20.1086 12.034 20.1086 11.0007C20.1086 9.96733 19.2709 9.12964 18.2376 9.12964C17.2043 9.12964 16.3666 9.96733 16.3666 11.0007C16.3666 12.034 17.2043 12.8717 18.2376 12.8717Z" fill="url(#paint9_linear)"/>
<g clip-path="url(#clip1)">
<path d="M38.3547 45.1541C36.5629 46.9628 35.4643 49.3857 35.2614 51.9212C35.2276 52.3606 34.8557 52.6987 34.4162 52.6987H27.5872C27.1477 52.6987 26.7759 52.3606 26.742 51.9212C26.5392 49.3857 25.4405 46.9628 23.6488 45.1541C23.3614 44.8837 23.3107 44.4273 23.5304 44.0892L30.1566 34.15L30.9003 35.4685L31.0018 35.3333L31.8469 34.15L38.473 44.0892C38.6928 44.4273 38.6422 44.8837 38.3547 45.1541Z" fill="url(#paint10_linear)"/>
<path d="M38.3548 45.1541C36.563 46.9628 35.4643 49.3857 35.2615 51.9212C35.2276 52.3606 34.8558 52.6987 34.4163 52.6987H31.0018V35.3333L31.847 34.15L38.4731 44.0892C38.6929 44.4273 38.6422 44.8837 38.3548 45.1541Z" fill="url(#paint11_linear)"/>
<path d="M32.6922 50.5351H29.3115C26.9789 50.5351 25.0857 52.4283 25.0857 54.7609C25.0857 55.2342 25.4575 55.6061 25.9309 55.6061H36.0729C36.5463 55.6061 36.9181 55.2342 36.9181 54.7609C36.9181 52.4283 35.0249 50.5351 32.6922 50.5351Z" fill="#92ABD0"/>
<path d="M36.918 54.7609C36.918 55.2342 36.5462 55.6061 36.0729 55.6061H31.0018V50.5351H32.6922C35.0248 50.5351 36.918 52.4283 36.918 54.7609Z" fill="#7C9AC5"/>
<path d="M41.9891 29.2932C41.9891 29.7664 41.6173 30.1383 41.1439 30.1383H20.8598C20.3865 30.1383 20.0146 29.7664 20.0146 29.2932C20.0146 28.8198 20.3865 28.448 20.8598 28.448H41.1439C41.6173 28.448 41.9891 28.8198 41.9891 29.2932Z" fill="#C5DFFA"/>
<path d="M41.989 29.2932C41.989 29.7664 41.6172 30.1383 41.1439 30.1383H31.0018V28.448H41.1439C41.6172 28.448 41.989 28.8198 41.989 29.2932Z" fill="#ABC7E4"/>
<path d="M20.8598 40.2803C20.3927 40.2803 20.0146 39.9023 20.0146 39.4352C20.0146 34.0439 23.8683 29.4863 29.1778 28.599C29.6359 28.5173 30.0734 28.8334 30.1509 29.2931C30.2277 29.7537 29.9173 30.1894 29.4568 30.2662C24.9651 31.0173 21.705 34.8734 21.705 39.4352C21.705 39.9023 21.327 40.2803 20.8598 40.2803Z" fill="#C5DFFA"/>
<path d="M41.1439 40.2804C40.6768 40.2804 40.2988 39.9023 40.2988 39.4352C40.2988 34.8734 37.0386 31.0173 32.547 30.2663C32.0864 30.1895 31.7761 29.7537 31.8529 29.2931C31.9296 28.8334 32.3646 28.5165 32.826 28.599C38.1355 29.4863 41.9891 34.0439 41.9891 39.4352C41.9891 39.9023 41.6111 40.2804 41.1439 40.2804Z" fill="#ABC7E4"/>
<path d="M20.8599 43.661C19.4617 43.661 18.3243 42.5237 18.3243 41.1255C18.3243 39.7274 19.4617 38.59 20.8599 38.59C22.258 38.59 23.3954 39.7274 23.3954 41.1255C23.3954 42.5237 22.258 43.661 20.8599 43.661Z" fill="#8CB6F0"/>
<path d="M20.8598 41.9707C20.3938 41.9707 20.0146 41.5915 20.0146 41.1255C20.0146 40.6595 20.3938 40.2803 20.8598 40.2803C21.3258 40.2803 21.705 40.6595 21.705 41.1255C21.705 41.5915 21.3258 41.9707 20.8598 41.9707Z" fill="#E1F1FA"/>
<path d="M41.1439 43.661C39.7458 43.661 38.6084 42.5237 38.6084 41.1255C38.6084 39.7274 39.7458 38.59 41.1439 38.59C42.542 38.59 43.6794 39.7274 43.6794 41.1255C43.6794 42.5237 42.542 43.661 41.1439 43.661Z" fill="#5C8CD7"/>
<path d="M41.1439 41.9707C40.6778 41.9707 40.2987 41.5915 40.2987 41.1255C40.2987 40.6595 40.6778 40.2803 41.1439 40.2803C41.6099 40.2803 41.989 40.6595 41.989 41.1255C41.989 41.5915 41.6099 41.9707 41.1439 41.9707Z" fill="#BFE1FF"/>
<path d="M31.0018 26.7576C29.5988 26.7576 28.4663 27.8901 28.4663 29.2931C28.4663 30.6961 29.5988 31.8287 31.0018 31.8287C32.4049 31.8287 33.5373 30.6961 33.5373 29.2931C33.5373 27.8901 32.4049 26.7576 31.0018 26.7576Z" fill="#8CB6F0"/>
<path d="M20.8035 31.8287H17.4228C16.9557 31.8287 16.5776 31.4506 16.5776 30.9835V27.6028C16.5776 27.1356 16.9557 26.7576 17.4228 26.7576H20.8035C21.2706 26.7576 21.6487 27.1356 21.6487 27.6028V30.9835C21.6487 31.4506 21.2706 31.8287 20.8035 31.8287Z" fill="#8CB6F0"/>
<path d="M19.9583 28.448H18.2679V30.1383H19.9583V28.448Z" fill="#E1F1FA"/>
<path d="M44.581 31.8287H41.2003C40.7331 31.8287 40.3551 31.4506 40.3551 30.9835V27.6028C40.3551 27.1356 40.7331 26.7576 41.2003 26.7576H44.581C45.0481 26.7576 45.4261 27.1356 45.4261 27.6028V30.9835C45.4261 31.4506 45.0481 31.8287 44.581 31.8287Z" fill="#5C8CD7"/>
<path d="M43.7358 28.448H42.0454V30.1383H43.7358V28.448Z" fill="#BFE1FF"/>
<path d="M31.0018 42.027C29.5988 42.027 28.4663 43.1595 28.4663 44.5625C28.4663 45.9655 29.5988 47.0981 31.0018 47.0981C32.4049 47.0981 33.5373 45.9655 33.5373 44.5625C33.5373 43.1595 32.4049 42.027 31.0018 42.027Z" fill="#92ABD0"/>
<path d="M31.847 34.15V42.8722C31.847 43.3454 31.4751 43.7174 31.0018 43.7174C30.5284 43.7174 30.1566 43.3454 30.1566 42.8722V34.15L30.2919 33.9471C30.4609 33.7105 30.7314 33.5922 31.0018 33.5922C31.2722 33.5922 31.5427 33.7104 31.7117 33.9471L31.847 34.15Z" fill="#92ABD0"/>
<path d="M31.0018 31.8287V26.7576C32.4049 26.7576 33.5373 27.8901 33.5373 29.2931C33.5373 30.6961 32.4049 31.8287 31.0018 31.8287Z" fill="#5C8CD7"/>
<path d="M31.0019 30.1383C30.5359 30.1383 30.1567 29.7592 30.1567 29.2932C30.1567 28.8271 30.5359 28.448 31.0019 28.448C31.4679 28.448 31.8471 28.8271 31.8471 29.2932C31.8471 29.7592 31.4679 30.1383 31.0019 30.1383Z" fill="#E1F1FA"/>
<path d="M31.847 29.2932C31.847 28.8271 31.4679 28.448 31.0018 28.448V30.1383C31.4679 30.1383 31.847 29.7592 31.847 29.2932Z" fill="#BFE1FF"/>
<path d="M31.0018 43.7174V33.5922C31.2722 33.5922 31.5427 33.7104 31.7117 33.9471L31.847 34.15V42.8722C31.847 43.3454 31.4752 43.7174 31.0018 43.7174Z" fill="#7C9AC5"/>
<path d="M33.5373 44.5625C33.5373 45.9655 32.4049 47.0981 31.0018 47.0981V42.027C32.4049 42.027 33.5373 43.1595 33.5373 44.5625Z" fill="#7C9AC5"/>
</g>
</g>
<defs>
<linearGradient id="paint0_linear" x1="-0.299584" y1="34.0003" x2="66.4978" y2="34.0003" gradientUnits="userSpaceOnUse">
<stop stop-color="#D5E6FF"/>
<stop stop-color="#F6F9FD"/>
<stop offset="0.0001" stop-color="#FAFCFF"/>
<stop offset="0.593" stop-color="#E7F3FF"/>
<stop offset="1" stop-color="#E1EAF9"/>
</linearGradient>
<linearGradient id="paint1_linear" x1="0.215553" y1="34.0003" x2="67.0129" y2="34.0003" gradientUnits="userSpaceOnUse">
<stop stop-color="#E6EEF3"/>
<stop offset="1" stop-color="#B0CCF9"/>
</linearGradient>
<linearGradient id="paint2_linear" x1="-9.53852" y1="11.045" x2="81.1332" y2="11.045" gradientUnits="userSpaceOnUse">
<stop stop-color="#CDDEFA"/>
<stop offset="1" stop-color="#92B8F3"/>
</linearGradient>
<linearGradient id="paint3_linear" x1="57.0637" y1="11.045" x2="69.8543" y2="11.045" gradientUnits="userSpaceOnUse">
<stop stop-color="#91B7F3"/>
<stop offset="1" stop-color="#78A1E2"/>
</linearGradient>
<linearGradient id="paint4_linear" x1="1.80387" y1="11.0007" x2="9.15882" y2="11.0007" gradientUnits="userSpaceOnUse">
<stop stop-color="#CDDEFA"/>
<stop offset="1" stop-color="#92B8F3"/>
</linearGradient>
<linearGradient id="paint5_linear" x1="2.93946" y1="11.0007" x2="7.92915" y2="11.0007" gradientUnits="userSpaceOnUse">
<stop stop-color="#B2CFFE"/>
<stop offset="1" stop-color="#6591D7"/>
</linearGradient>
<linearGradient id="paint6_linear" x1="8.25504" y1="11.0007" x2="15.61" y2="11.0007" gradientUnits="userSpaceOnUse">
<stop stop-color="#CDDEFA"/>
<stop offset="1" stop-color="#92B8F3"/>
</linearGradient>
<linearGradient id="paint7_linear" x1="9.91565" y1="11.0007" x2="13.6577" y2="11.0007" gradientUnits="userSpaceOnUse">
<stop stop-color="#FAFCFF"/>
<stop offset="0.593" stop-color="#CAE2FA"/>
<stop offset="1" stop-color="#BCD7F8"/>
</linearGradient>
<linearGradient id="paint8_linear" x1="14.706" y1="11.0007" x2="22.0609" y2="11.0007" gradientUnits="userSpaceOnUse">
<stop stop-color="#CDDEFA"/>
<stop offset="1" stop-color="#92B8F3"/>
</linearGradient>
<linearGradient id="paint9_linear" x1="16.3666" y1="11.0007" x2="20.1086" y2="11.0007" gradientUnits="userSpaceOnUse">
<stop stop-color="#FAFCFF"/>
<stop offset="0.593" stop-color="#CAE2FA"/>
<stop offset="1" stop-color="#BCD7F8"/>
</linearGradient>
<linearGradient id="paint10_linear" x1="23.2744" y1="43.2425" x2="31.0017" y2="43.2425" gradientUnits="userSpaceOnUse">
<stop stop-color="#AECAF5"/>
<stop offset="0.0001" stop-color="#96BCF5"/>
<stop offset="1" stop-color="#C0D5FF"/>
</linearGradient>
<linearGradient id="paint11_linear" x1="31.9534" y1="43.4244" x2="39.2436" y2="43.4244" gradientUnits="userSpaceOnUse">
<stop stop-color="#C0D5FF"/>
<stop offset="0.5484" stop-color="#94BBF4"/>
<stop offset="1" stop-color="#93B4F5"/>
</linearGradient>
<clipPath id="clip0">
<rect width="68" height="68" fill="white" transform="translate(0.00195312 0.000305176)"/>
</clipPath>
<clipPath id="clip1">
<rect width="28.8485" height="28.8485" fill="white" transform="translate(16.5776 26.7576)"/>
</clipPath>
</defs>
</svg>
