<svg width="33" height="30" viewBox="0 0 33 30" fill="none" xmlns="http://www.w3.org/2000/svg">
<g clip-path="url(#clip0)">
<path d="M30.0996 3.57422H2.90037C2.4539 3.57422 2.03592 3.674 1.65778 3.83848L16.4355 17.2728L19.7477 14.379C19.7477 14.379 19.748 14.3787 19.748 14.3786C19.7481 14.3785 19.7483 14.3784 19.7483 14.3784L31.3426 3.83871C30.9644 3.67412 30.5462 3.57422 30.0996 3.57422Z" fill="#072EFC"/>
<path d="M32.7097 5.08179L21.7989 15.0002L32.7093 24.9188C32.8902 24.575 33 24.195 33 23.7891V6.21101C33 5.80536 32.8905 5.42544 32.7097 5.08179Z" fill="#072EFC"/>
<path d="M0.290684 5.0813C0.109764 5.42507 0 5.80505 0 6.21093V23.7891C0 24.1947 0.109635 24.5747 0.290426 24.9184L11.2012 15L0.290684 5.0813Z" fill="#072EFC"/>
<path d="M20.4318 16.243L17.1191 19.1372C16.9303 19.3088 16.6829 19.3947 16.4356 19.3947C16.1883 19.3947 15.9409 19.3088 15.7521 19.1372L12.5684 16.2429L1.65735 26.1614C2.03556 26.326 2.4538 26.4259 2.90039 26.4259H30.0996C30.5461 26.4259 30.9641 26.3261 31.3422 26.1616L20.4318 16.243Z" fill="#072EFC"/>
</g>
<defs>
<clipPath id="clip0">
<rect width="33" height="30" fill="white"/>
</clipPath>
</defs>
</svg>
