<svg width="31" height="31" fill="none" xmlns="http://www.w3.org/2000/svg"><path d="M18.225 15.5a2.725 2.725 0 10-5.45 0 2.725 2.725 0 005.45 0z" fill="#072EFC"/><path d="M20.102 23.734h-9.204a3.637 3.637 0 01-3.632-3.632v-9.204a3.637 3.637 0 013.632-3.632h9.204a3.637 3.637 0 013.632 3.632v9.204a3.637 3.637 0 01-3.632 3.632zM15.5 10.96a4.546 4.546 0 00-4.541 4.541 4.546 4.546 0 004.541 4.541 4.546 4.546 0 004.541-4.541A4.546 4.546 0 0015.5 10.96zm5.207 8.84a.908.908 0 100 1.816.908.908 0 000-1.816z" fill="#072EFC"/><path d="M22.826 31H8.174C3.667 31 0 27.333 0 22.826V8.174C0 3.667 3.667 0 8.174 0h14.652C27.333 0 31 3.667 31 8.174v14.652C31 27.333 27.333 31 22.826 31zm2.725-20.102A5.455 5.455 0 0020.1 5.45h-9.203A5.455 5.455 0 005.45 10.9v9.203a5.455 5.455 0 005.45 5.449h9.203a5.455 5.455 0 005.449-5.45v-9.203z" fill="#072EFC"/></svg>