<svg width="28" height="27" viewBox="0 0 28 27" fill="none" xmlns="http://www.w3.org/2000/svg">
<g clip-path="url(#clip0)">
<path d="M16.2025 0.000244141H10.8018C5.59032 0.000244141 1.35059 4.23998 1.35059 9.45146V13.502C1.35059 17.1607 3.4607 20.4811 6.75127 22.0429V26.5536C6.75127 26.9453 7.24123 27.1501 7.51956 26.8719L11.4382 22.9532H16.2024C21.4139 22.9532 25.6536 18.7135 25.6536 13.502V9.45146C25.6536 4.23998 21.4139 0.000244141 16.2025 0.000244141Z" fill="#785AFA"/>
<path d="M8.10143 22.0428C4.81086 20.481 2.70074 17.1607 2.70074 13.5019V9.4514C2.70074 4.23998 6.94054 0.000244141 12.152 0.000244141H10.8018C5.59032 0.000244141 1.35059 4.23998 1.35059 9.45146V13.502C1.35059 17.1607 3.4607 20.4811 6.75127 22.0429V26.5536C6.75127 26.9453 7.24123 27.1501 7.51956 26.8719L8.10143 26.29V22.0428Z" fill="#5F41E1"/>
<path d="M20.2967 16.775L19.8921 14.583C19.8586 14.402 19.7183 14.2595 19.5378 14.2234L16.3554 13.5869C16.2076 13.5575 16.0553 13.6037 15.9488 13.71L14.656 15.003C12.4776 14.0269 11.2686 12.8153 10.2049 10.5434L11.4936 9.25477C11.5999 9.14835 11.6461 8.99574 11.6167 8.84819L10.9802 5.66577C10.9441 5.48526 10.8016 5.34489 10.6206 5.31145L8.4286 4.90687C8.36859 4.89585 8.30679 4.89701 8.2472 4.91056C7.66844 5.04203 7.14035 5.33365 6.72001 5.7541C5.99217 6.48194 5.714 7.54401 5.91565 8.82551C6.25415 10.9774 7.30842 13.9721 9.25353 15.925L9.2801 15.9513C11.2315 17.8951 14.2262 18.9495 16.3782 19.288C16.6493 19.3307 16.9104 19.3519 17.1608 19.3519C18.0939 19.3519 18.8757 19.0575 19.4497 18.4836C19.8701 18.0632 20.1618 17.5351 20.2932 16.9565C20.3065 16.8968 20.3078 16.8351 20.2967 16.775Z" fill="white"/>
<path d="M11.0538 9.6947L11.4938 9.25463L11.4943 9.25415L11.0537 9.69465L11.0538 9.6947Z" fill="#E5E5E5"/>
<path d="M15.949 13.7097L15.5046 14.1541L15.5047 14.1541L15.949 13.7098L15.949 13.7097Z" fill="#E5E5E5"/>
<path d="M18.0095 18.5031C17.7591 18.5031 17.498 18.482 17.2269 18.4393C15.075 18.1007 12.0802 17.0463 10.1288 15.1026L10.1022 15.0762C8.15713 13.1233 7.10286 10.1286 6.76436 7.97676C6.60146 6.94143 6.75207 6.04943 7.19973 5.36108C7.02829 5.47546 6.8674 5.60667 6.72001 5.75406C5.99217 6.4819 5.714 7.54397 5.91565 8.82547C6.25415 10.9774 7.30842 13.972 9.25353 15.925L9.2801 15.9513C11.2315 17.8951 14.2262 18.9494 16.3782 19.288C16.6493 19.3307 16.9104 19.3518 17.1608 19.3518C18.0939 19.3518 18.8757 19.0575 19.4497 18.4836C19.5971 18.3362 19.7283 18.1753 19.8426 18.0039C19.3344 18.3344 18.7153 18.5031 18.0095 18.5031Z" fill="#E5E5E5"/>
<path d="M14.4017 7.65088C14.1532 7.65088 13.9517 7.85238 13.9517 8.10091C13.9517 8.34945 14.1532 8.55095 14.4017 8.55095C15.3944 8.55095 16.202 9.35852 16.202 10.3512C16.202 10.5964 16.4068 10.8012 16.652 10.8012C16.8972 10.8012 17.102 10.5964 17.102 10.3512C17.1021 8.86219 15.8907 7.65088 14.4017 7.65088Z" fill="white"/>
<path d="M14.4019 5.85107C14.2354 5.85107 14.0674 5.8603 13.9024 5.8785C13.6554 5.90576 13.4772 6.12814 13.5045 6.37525C13.5317 6.62237 13.7546 6.80008 14.0012 6.77324C14.1335 6.75863 14.2683 6.7512 14.4019 6.7512C16.3872 6.7512 18.0023 8.36635 18.0023 10.3516C18.0023 10.4853 17.9949 10.6201 17.9803 10.7524C17.9534 10.9961 18.1345 11.2223 18.3783 11.2491C18.622 11.276 18.8481 11.0949 18.875 10.8511C18.8932 10.6862 18.9025 10.5182 18.9025 10.3516C18.9025 7.87006 16.8835 5.85107 14.4019 5.85107Z" fill="white"/>
<path d="M14.4024 4.05054C14.2415 4.05054 14.0786 4.05665 13.9183 4.06884C13.6705 4.08761 13.4847 4.30382 13.5035 4.55162C13.5222 4.79947 13.7392 4.9852 13.9863 4.96643C14.1241 4.95593 14.2641 4.95066 14.4024 4.95066C17.3803 4.95066 19.803 7.37338 19.803 10.3513C19.803 10.7727 19.7544 11.1921 19.6586 11.598C19.6036 11.8305 19.7468 12.0723 19.9774 12.1355C20.22 12.2019 20.4767 12.0498 20.5345 11.805C20.6464 11.3314 20.7032 10.8424 20.7032 10.3513C20.7032 6.87705 17.8767 4.05054 14.4024 4.05054Z" fill="white"/>
</g>
<defs>
<clipPath id="clip0">
<rect width="27" height="27" fill="white" transform="translate(0.00195312 0.000244141)"/>
</clipPath>
</defs>
</svg>
