<svg width="28" height="27" viewBox="0 0 28 27" fill="none" xmlns="http://www.w3.org/2000/svg">
<g clip-path="url(#clip0)">
<path d="M13.502 26.9997C20.9578 26.9997 27.002 20.9556 27.002 13.4997C27.002 6.04391 20.9578 -0.000244141 13.502 -0.000244141C6.04611 -0.000244141 0.00195312 6.04391 0.00195312 13.4997C0.00195312 20.9556 6.04611 26.9997 13.502 26.9997Z" fill="#32B4FF"/>
<path d="M1.80194 13.4997C1.80194 6.34644 7.36583 0.49356 14.4019 0.030289C14.1044 0.0107246 13.8045 -0.000244141 13.502 -0.000244141C6.0461 -0.000244141 0.00195312 6.0439 0.00195312 13.4997C0.00195312 20.9556 6.0461 26.9997 13.502 26.9997C13.8045 26.9997 14.1044 26.9888 14.402 26.9692C7.36589 26.5059 1.80194 20.6531 1.80194 13.4997Z" fill="#199BDF"/>
<path d="M20.0545 5.75093C19.9234 5.66181 19.7552 5.64831 19.6116 5.71513L5.10503 12.4682C4.85017 12.5869 4.68911 12.8464 4.6955 13.1274C4.70167 13.403 4.86846 13.6505 5.1208 13.761L18.4949 19.5859C18.9415 19.7889 19.4673 19.4694 19.496 18.9819L20.2508 6.1495C20.26 5.9914 20.1855 5.83995 20.0545 5.75093Z" fill="#E5E5E5"/>
<path d="M9.05273 15.473L9.95666 21.5153L19.9971 5.71777L9.05273 15.473Z" fill="#CCCCCC"/>
<path d="M19.6117 5.71492L5.10505 12.468C4.85524 12.5843 4.69235 12.8435 4.69535 13.119C4.69841 13.3949 4.86811 13.6502 5.12076 13.7608L9.05248 15.4731L19.9968 5.71793C19.8762 5.65982 19.7349 5.65755 19.6117 5.71492Z" fill="white"/>
<path d="M11.1513 16.3868L9.95703 21.5153L19.9974 5.71777L11.1513 16.3868Z" fill="#E5E5E5"/>
<path d="M20.0553 5.75057C20.0368 5.73797 20.0173 5.72727 19.9976 5.71777L11.1514 16.3868L18.4957 19.5855C18.9422 19.7885 19.4681 19.469 19.4967 18.9816L20.2516 6.14914C20.2609 5.99104 20.1864 5.83959 20.0553 5.75057Z" fill="white"/>
</g>
<defs>
<clipPath id="clip0">
<rect width="27" height="27" fill="white" transform="translate(0.00195312 -0.000244141)"/>
</clipPath>
</defs>
</svg>
