<svg width="29" height="29" fill="none" xmlns="http://www.w3.org/2000/svg"><path d="M28.166 17.578c.21-.945.32-1.923.32-2.928 0-7.53-6.192-13.637-13.832-13.637-.805 0-1.595.07-2.365.2A8.072 8.072 0 008.022 0C3.591 0 0 3.54 0 7.91a7.79 7.79 0 001.102 4c-.183.884-.28 1.802-.28 2.74 0 7.533 6.192 13.64 13.83 13.64.867 0 1.713-.08 2.534-.229A8.09 8.09 0 0020.98 29c4.43 0 8.02-3.542 8.02-7.908a7.78 7.78 0 00-.834-3.514zm-6.418 3.59c-.64.894-1.584 1.6-2.811 2.1-1.213.5-2.664.753-4.321.753-1.986 0-3.652-.344-4.954-1.026a6.428 6.428 0 01-2.276-1.994c-.59-.833-.885-1.662-.885-2.463 0-.498.194-.931.577-1.285.379-.353.864-.53 1.444-.53.475 0 .885.14 1.218.418.318.266.591.661.81 1.167.245.555.512 1.022.793 1.387.273.357.663.654 1.161.888.503.232 1.179.353 2.009.353 1.143 0 2.082-.24 2.786-.716.69-.462 1.024-1.02 1.024-1.702 0-.536-.176-.96-.533-1.292-.377-.348-.874-.618-1.476-.805a29.306 29.306 0 00-2.537-.62c-1.438-.302-2.657-.661-3.625-1.069-.992-.417-1.793-.993-2.376-1.715-.595-.734-.896-1.653-.896-2.733 0-1.03.316-1.957.94-2.759.617-.795 1.52-1.417 2.685-1.84 1.148-.418 2.512-.63 4.058-.63 1.235 0 2.32.141 3.228.42.912.28 1.68.657 2.284 1.123.61.47 1.062.97 1.345 1.491.286.526.433 1.05.433 1.555 0 .488-.19.932-.567 1.316-.38.39-.86.586-1.421.586-.511 0-.913-.125-1.19-.366-.26-.227-.53-.58-.827-1.084-.345-.646-.763-1.155-1.242-1.516-.466-.35-1.241-.523-2.31-.523-.99 0-1.799.195-2.397.583-.576.372-.857.8-.857 1.307 0 .31.09.57.277.792.196.24.473.444.825.618.362.18.737.325 1.113.426.384.105 1.027.263 1.914.464 1.12.236 2.147.502 3.057.79.923.288 1.717.646 2.37 1.064.66.426 1.185.97 1.558 1.622.373.658.562 1.465.562 2.404a5.134 5.134 0 01-.97 3.041z" fill="#072EFC"/></svg>