<svg width="33" height="30" fill="none" xmlns="http://www.w3.org/2000/svg"><g clip-path="url(#clip0)" fill="#072EFC"><path d="M30.1 3.574H2.9c-.446 0-.864.1-1.242.264l14.777 13.435 3.313-2.894 11.595-10.54a3.104 3.104 0 00-1.243-.265zm2.61 1.508L21.799 15l10.91 9.919c.181-.344.291-.724.291-1.13V6.211c0-.406-.11-.786-.29-1.13zM.29 5.081c-.18.344-.29.724-.29 1.13v17.578c0 .406.11.786.29 1.13L11.201 15 .291 5.081z"/><path d="M20.432 16.243l-3.313 2.894a1.015 1.015 0 01-.683.258c-.248 0-.495-.086-.684-.258l-3.184-2.894-10.91 9.918c.378.165.796.265 1.242.265h27.2c.446 0 .864-.1 1.242-.264l-10.91-9.919z"/></g><defs><clipPath id="clip0"><path fill="#fff" d="M0 0h33v30H0z"/></clipPath></defs></svg>