<svg width="32" height="32" fill="none" xmlns="http://www.w3.org/2000/svg"><path d="M16 32a15.895 15.895 0 01-11.314-4.686A15.895 15.895 0 010 16c0-4.274 1.664-8.292 4.686-11.314A15.896 15.896 0 0116 0c4.274 0 8.292 1.664 11.314 4.686A15.895 15.895 0 0132 16c0 4.274-1.664 8.292-4.686 11.314A15.895 15.895 0 0116 32zm0-30.125c-3.773 0-7.32 1.47-9.988 4.137A14.032 14.032 0 001.875 16c0 3.773 1.47 7.32 4.137 9.988A14.032 14.032 0 0016 30.125c3.773 0 7.32-1.47 9.988-4.137A14.033 14.033 0 0030.125 16c0-3.773-1.47-7.32-4.137-9.988A14.033 14.033 0 0016 1.875z" fill="#000"/><path d="M15.063 3.752h1.874v2.502h-1.875V3.752zm7.162 4.695l1.77-1.768 1.325 1.325-1.77 1.769-1.325-1.326zm3.521 6.616h2.502v1.874h-2.502v-1.875zm-3.522 8.491l1.325-1.325 1.77 1.768-1.327 1.326-1.768-1.769zm-7.161 2.192h1.874v2.502h-1.875v-2.502zm-8.39-1.75l1.77-1.77 1.325 1.327-1.769 1.768-1.326-1.325zm-2.921-8.933h2.502v1.874H3.752v-1.875zm2.923-7.061l1.326-1.325L9.77 8.446 8.444 9.77 6.675 8.002zm15.943 8.936h-7.555V9.381h1.874v5.68h5.681v1.876z" fill="#000"/></svg>