<svg width="30" height="28" fill="none" xmlns="http://www.w3.org/2000/svg"><path d="M23.79.816h-7.032a6.16 6.16 0 00-6.152 6.153 6.162 6.162 0 005.273 6.09v2.699a.878.878 0 001.5.621l3.258-3.258h3.152c3.392 0 6.211-2.76 6.211-6.152C30 3.577 27.181.816 23.79.816zm-7.032 7.032a.879.879 0 110-1.758.879.879 0 010 1.758zm3.515 0a.879.879 0 110-1.758.879.879 0 010 1.758zm3.516 0a.879.879 0 110-1.758.879.879 0 010 1.758z" fill="#072EFC"/><path d="M19.746 27.184a2.64 2.64 0 002.637-2.637V21.03a.878.878 0 00-.601-.833l-5.261-1.758a.88.88 0 00-.766.102l-2.236 1.491c-2.37-1.13-5.18-3.94-6.31-6.31L8.7 11.488a.88.88 0 00.102-.766l-1.758-5.26a.878.878 0 00-.833-.602H2.637A2.63 2.63 0 000 7.484c0 10.126 9.62 19.7 19.746 19.7z" fill="#072EFC"/></svg>