<svg width="28" height="28" fill="none" xmlns="http://www.w3.org/2000/svg"><g clip-path="url(#clip0)"><path d="M16.8 0h-5.6C5.795 0 1.398 4.397 1.398 9.801v4.2A9.805 9.805 0 007 22.86v4.678c0 .406.508.618.797.33l4.064-4.064h4.94c5.405 0 9.802-4.397 9.802-9.801v-4.2C26.602 4.396 22.205 0 16.8 0z" fill="#072EFC"/><path d="M8.4 22.859a9.805 9.805 0 01-5.601-8.857v-4.2C2.799 4.396 7.195 0 12.599 0h-1.4C5.796 0 1.4 4.397 1.4 9.801v4.2A9.805 9.805 0 007 22.859v4.678c0 .406.508.618.797.33l.603-.604V22.86z" fill="#0521B1"/><path d="M21.047 17.396l-.42-2.273a.467.467 0 00-.367-.373l-3.3-.66a.467.467 0 00-.422.128l-1.341 1.34c-2.26-1.011-3.513-2.268-4.616-4.624l1.336-1.336a.467.467 0 00.128-.422l-.66-3.3a.467.467 0 00-.373-.368l-2.273-.42a.468.468 0 00-.188.005c-.6.136-1.148.438-1.584.874-.755.755-1.043 1.857-.834 3.186.35 2.231 1.444 5.337 3.461 7.362l.028.027c2.024 2.016 5.13 3.11 7.36 3.46.282.045.553.067.812.067.968 0 1.779-.305 2.374-.9.436-.437.739-.984.875-1.584a.472.472 0 00.004-.189z" fill="#fff"/><path d="M11.46 10.053l.457-.456-.456.457zm5.078 4.164l-.461.461.46-.46z" fill="#E5E5E5"/><path d="M18.674 19.188c-.26 0-.53-.022-.811-.066-2.232-.351-5.338-1.444-7.361-3.46l-.028-.028c-2.017-2.025-3.11-5.13-3.461-7.362-.17-1.074-.013-1.999.451-2.712a3.268 3.268 0 00-.497.407c-.755.755-1.044 1.856-.834 3.185.35 2.232 1.444 5.337 3.461 7.363l.028.027c2.023 2.016 5.129 3.11 7.36 3.46.282.045.553.067.812.067.968 0 1.779-.306 2.374-.9.153-.154.289-.32.407-.498-.527.342-1.169.517-1.9.517z" fill="#E5E5E5"/><path d="M14.933 7.935a.467.467 0 000 .933c1.03 0 1.867.837 1.867 1.867 0 .254.213.467.467.467a.471.471 0 00.467-.467c0-1.544-1.256-2.8-2.8-2.8z" fill="#fff"/><path d="M14.934 6.067c-.173 0-.347.01-.518.029a.467.467 0 10.102.928 3.738 3.738 0 014.126 4.127.471.471 0 00.413.514.471.471 0 00.515-.412 4.673 4.673 0 00-4.639-5.185z" fill="#fff"/><path d="M14.934 4.2a6.46 6.46 0 00-.502.02.467.467 0 00.07.93 5.607 5.607 0 015.882 6.877.471.471 0 00.331.558.471.471 0 00.578-.343 6.542 6.542 0 00-6.36-8.042z" fill="#fff"/></g><defs><clipPath id="clip0"><path fill="#fff" d="M0 0h28v28H0z"/></clipPath></defs></svg>