<svg width="32" height="32" fill="none" xmlns="http://www.w3.org/2000/svg"><g clip-path="url(#clip0)" fill="#072EFC"><path d="M16.484 19.93c0-2.465-1.172-4.286-3.593-4.969 1.766-.841 2.688-2.116 2.688-4.098C15.579 6.953 12.656 6 9.284 6H0v19.628h9.544c3.579 0 6.94-1.71 6.94-5.699zM4.328 9.35h4.061c1.562 0 2.967.438 2.967 2.243 0 1.667-1.093 2.338-2.64 2.338H4.328V9.35zm-.001 12.945v-5.406h4.717c1.905 0 3.11.792 3.11 2.803 0 1.983-1.438 2.603-3.2 2.603H4.328zM25.061 26c3.406 0 5.611-1.53 6.672-4.78h-3.456c-.372 1.213-1.905 1.855-3.094 1.855-2.295 0-3.5-1.34-3.5-3.618h10.284c.325-4.557-2.214-8.44-6.907-8.44-4.345 0-7.295 3.255-7.295 7.52 0 4.427 2.795 7.463 7.296 7.463zm-.122-12.035c1.966 0 2.956 1.152 3.121 3.036h-6.372c.13-1.868 1.373-3.036 3.25-3.036zM20.89 7.03h7.983v1.934H20.89V7.031z"/></g><defs><clipPath id="clip0"><path fill="#fff" d="M0 0h32v32H0z"/></clipPath></defs></svg>