<svg width="169" height="42" viewBox="0 0 169 42" fill="none" xmlns="http://www.w3.org/2000/svg">
<path d="M1.63395 33V8.18H7.27795V33H1.63395ZM21.3104 16H26.9544V33H21.3104V31.3C20.2904 32.7507 18.7151 33.476 16.5844 33.476C14.7484 33.476 13.2411 32.8527 12.0624 31.606C10.9064 30.3367 10.3284 28.5233 10.3284 26.166V16H15.9724V25.452C15.9724 26.336 16.1991 27.0047 16.6524 27.458C17.1284 27.9113 17.7517 28.138 18.5224 28.138C19.4064 28.138 20.0864 27.8773 20.5624 27.356C21.0611 26.812 21.3104 26.0413 21.3104 25.044V16ZM38.4166 33.476C35.8326 33.476 33.6793 32.6147 31.9566 30.892C30.234 29.1693 29.3726 27.0387 29.3726 24.5C29.3726 21.9613 30.234 19.8307 31.9566 18.108C33.6793 16.3853 35.8326 15.524 38.4166 15.524C40.094 15.524 41.6126 15.9207 42.9726 16.714C44.3553 17.5073 45.4206 18.5727 46.1686 19.91L41.3406 22.698C40.7286 21.5873 39.7426 21.032 38.3826 21.032C37.4306 21.032 36.6373 21.3607 36.0026 22.018C35.368 22.6527 35.0506 23.48 35.0506 24.5C35.0506 25.52 35.368 26.3587 36.0026 27.016C36.6373 27.6507 37.4306 27.968 38.3826 27.968C39.788 27.968 40.774 27.4013 41.3406 26.268L46.1686 29.056C45.4206 30.416 44.3553 31.4927 42.9726 32.286C41.6126 33.0793 40.094 33.476 38.4166 33.476ZM64.7815 33H58.4575L53.6295 25.758V33H47.9855V9.2H53.6295V23.106L58.0155 16H64.5435L58.8315 24.5L64.7815 33ZM76.8592 16H83.1152L77.3012 32.728C76.3946 35.2893 75.1139 37.1367 73.4592 38.27C71.8046 39.4033 69.6626 39.9133 67.0332 39.8V34.496C68.2346 34.496 69.1412 34.3487 69.7532 34.054C70.3652 33.7593 70.8639 33.2267 71.2492 32.456L64.4492 16H70.7732L74.2072 25.86L76.8592 16Z" fill="#002958" fill-opacity="0.8"/>
<path d="M84.9794 25.452V20.08H98.2394V25.452H84.9794ZM107.147 20.964C107.147 21.2813 107.431 21.542 107.997 21.746C108.587 21.95 109.289 22.1427 110.105 22.324C110.944 22.5053 111.771 22.766 112.587 23.106C113.426 23.4233 114.129 23.9787 114.695 24.772C115.285 25.5653 115.579 26.5627 115.579 27.764C115.579 29.7133 114.854 31.1527 113.403 32.082C111.953 33.0113 110.23 33.476 108.235 33.476C104.427 33.476 101.889 32.1273 100.619 29.43L105.549 26.948C105.98 28.1947 106.864 28.818 108.201 28.818C109.221 28.818 109.731 28.512 109.731 27.9C109.731 27.5827 109.448 27.322 108.881 27.118C108.315 26.914 107.623 26.71 106.807 26.506C105.991 26.302 105.175 26.03 104.359 25.69C103.543 25.35 102.852 24.806 102.285 24.058C101.719 23.2873 101.435 22.3467 101.435 21.236C101.435 19.4227 102.104 18.0173 103.441 17.02C104.779 16.0227 106.388 15.524 108.269 15.524C111.624 15.524 113.959 16.8387 115.273 19.468L110.513 21.61C110.015 20.6353 109.312 20.148 108.405 20.148C107.567 20.148 107.147 20.42 107.147 20.964ZM122.878 13.654C122.244 14.2887 121.484 14.606 120.6 14.606C119.716 14.606 118.946 14.2887 118.288 13.654C117.654 12.9967 117.336 12.226 117.336 11.342C117.336 10.458 117.654 9.69866 118.288 9.064C118.946 8.42933 119.716 8.112 120.6 8.112C121.484 8.112 122.244 8.42933 122.878 9.064C123.536 9.69866 123.864 10.458 123.864 11.342C123.864 12.226 123.536 12.9967 122.878 13.654ZM117.778 33V16H123.422V33H117.778ZM137.217 21.406H133.681V26.336C133.681 27.084 133.953 27.5487 134.497 27.73C135.041 27.9113 135.948 27.968 137.217 27.9V33C133.84 33.408 131.46 33.102 130.077 32.082C128.717 31.0393 128.037 29.1693 128.037 26.472V21.406H125.487V16H128.037V12.94L133.681 11.24V16H137.217V21.406ZM144.559 26.574C145.125 27.9567 146.395 28.648 148.367 28.648C149.591 28.648 150.622 28.2513 151.461 27.458L155.541 30.314C153.863 32.422 151.427 33.476 148.231 33.476C145.352 33.476 143.04 32.6373 141.295 30.96C139.572 29.26 138.711 27.118 138.711 24.534C138.711 21.9727 139.561 19.8307 141.261 18.108C142.961 16.3853 145.125 15.524 147.755 15.524C150.293 15.524 152.39 16.374 154.045 18.074C155.699 19.774 156.527 21.9047 156.527 24.466C156.527 25.214 156.447 25.9167 156.289 26.574H144.559ZM144.491 22.664H151.019C150.565 21.0773 149.5 20.284 147.823 20.284C146.077 20.284 144.967 21.0773 144.491 22.664Z" fill="#8CB6F0" fill-opacity="0.7"/>
<path d="M162.248 33.476C161.251 33.476 160.401 33.136 159.698 32.456C159.018 31.7533 158.678 30.9147 158.678 29.94C158.678 28.9653 159.03 28.138 159.732 27.458C160.435 26.7553 161.274 26.404 162.248 26.404C163.223 26.404 164.05 26.7553 164.73 27.458C165.433 28.138 165.784 28.9653 165.784 29.94C165.784 30.9147 165.433 31.7533 164.73 32.456C164.05 33.136 163.223 33.476 162.248 33.476Z" fill="#002958"/>
</svg>
