<svg width="17" height="43" viewBox="0 0 17 43" fill="none" xmlns="http://www.w3.org/2000/svg">
<g opacity="0.7">
<path d="M8.36049 8.06006C3.76108 8.06006 0.00195312 11.8192 0.00195312 16.4186V25.6616C0.00195312 30.261 3.76108 34.0202 8.36049 34.0202C12.9599 34.0202 16.719 30.261 16.719 25.6616V16.4186C16.719 11.8192 12.9599 8.06006 8.36049 8.06006ZM9.73146 17.5684C9.73146 18.3203 9.11231 18.9394 8.36049 18.9394C7.60866 18.9394 6.98951 18.3203 6.98951 17.5684V13.8535C6.98951 13.1017 7.60866 12.4826 8.36049 12.4826C9.11231 12.4826 9.73146 13.1017 9.73146 13.8535V17.5684Z" fill="url(#paint0_linear)"/>
<path d="M8.36049 8.06006C3.76108 8.06006 0.00195312 11.8192 0.00195312 16.4186V25.6616C0.00195312 30.261 3.76108 34.0202 8.36049 34.0202C12.9599 34.0202 16.719 30.261 16.719 25.6616V16.4186C16.719 11.8192 12.9599 8.06006 8.36049 8.06006ZM9.73146 17.5684C9.73146 18.3203 9.11231 18.9394 8.36049 18.9394C7.60866 18.9394 6.98951 18.3203 6.98951 17.5684V13.8535C6.98951 13.1017 7.60866 12.4826 8.36049 12.4826C9.11231 12.4826 9.73146 13.1017 9.73146 13.8535V17.5684Z" fill="#002958"/>
<path d="M10.5263 36.8946L8.35932 39.0617L6.19229 36.8946C5.70582 36.4082 4.95399 36.4082 4.46752 36.8946C3.98104 37.3811 3.98104 38.1329 4.46752 38.6194L7.51905 41.6709C7.74017 41.8921 8.04975 42.0247 8.40355 42.0247C8.71312 42.0247 9.0227 41.8921 9.28805 41.6709L12.3396 38.6194C12.8261 38.1329 12.8261 37.3811 12.3396 36.8946C11.8089 36.4082 11.0128 36.4082 10.5263 36.8946Z" fill="url(#paint1_linear)"/>
<path d="M10.5263 36.8946L8.35932 39.0617L6.19229 36.8946C5.70582 36.4082 4.95399 36.4082 4.46752 36.8946C3.98104 37.3811 3.98104 38.1329 4.46752 38.6194L7.51905 41.6709C7.74017 41.8921 8.04975 42.0247 8.40355 42.0247C8.71312 42.0247 9.0227 41.8921 9.28805 41.6709L12.3396 38.6194C12.8261 38.1329 12.8261 37.3811 12.3396 36.8946C11.8089 36.4082 11.0128 36.4082 10.5263 36.8946Z" fill="#002958"/>
<path d="M6.19229 5.14116L8.35932 2.97413L10.5263 5.14116C10.7475 5.36229 11.0571 5.49496 11.4109 5.49496C11.7647 5.49496 12.03 5.36229 12.2954 5.14116C12.7818 4.65469 12.7818 3.90286 12.2954 3.41638L9.24382 0.364857C8.75735 -0.121619 8.00552 -0.121619 7.51904 0.364857L4.46752 3.41638C3.98104 3.90286 3.98104 4.65469 4.46752 5.14116C4.90977 5.62764 5.70582 5.62764 6.19229 5.14116Z" fill="url(#paint2_linear)"/>
<path d="M6.19229 5.14116L8.35932 2.97413L10.5263 5.14116C10.7475 5.36229 11.0571 5.49496 11.4109 5.49496C11.7647 5.49496 12.03 5.36229 12.2954 5.14116C12.7818 4.65469 12.7818 3.90286 12.2954 3.41638L9.24382 0.364857C8.75735 -0.121619 8.00552 -0.121619 7.51904 0.364857L4.46752 3.41638C3.98104 3.90286 3.98104 4.65469 4.46752 5.14116C4.90977 5.62764 5.70582 5.62764 6.19229 5.14116Z" fill="#002958"/>
</g>
<defs>
<linearGradient id="paint0_linear" x1="8.36049" y1="8.06006" x2="8.36049" y2="34.0202" gradientUnits="userSpaceOnUse">
<stop stop-color="#ADCCF9"/>
<stop offset="1" stop-color="#78A0DF"/>
</linearGradient>
<linearGradient id="paint1_linear" x1="8.40355" y1="36.5298" x2="8.40355" y2="42.0247" gradientUnits="userSpaceOnUse">
<stop stop-color="#ADCCF9"/>
<stop offset="1" stop-color="#78A0DF"/>
</linearGradient>
<linearGradient id="paint2_linear" x1="8.38143" y1="0" x2="8.38143" y2="5.50602" gradientUnits="userSpaceOnUse">
<stop stop-color="#ADCCF9"/>
<stop offset="1" stop-color="#78A0DF"/>
</linearGradient>
</defs>
</svg>
