<svg width="69" height="68" viewBox="0 0 69 68" fill="none" xmlns="http://www.w3.org/2000/svg">
<g clip-path="url(#clip0)">
<path d="M63.2297 62.1473H3.74248C1.39168 62.1473 -0.513916 60.2417 -0.513916 57.8909V10.1092C-0.513916 7.75858 1.39168 5.85284 3.74248 5.85284H63.2297C65.5804 5.85284 67.4861 7.75844 67.4861 10.1092V57.891C67.4861 60.2417 65.5805 62.1473 63.2297 62.1473Z" fill="url(#paint0_linear)"/>
<path d="M63.7456 5.85284H4.25835C1.90755 5.85284 0.00195312 7.75844 0.00195312 10.1092V19.5714H62.532V57.891C62.532 60.2416 60.6264 62.1474 58.2756 62.1474H63.7454C66.0961 62.1474 68.0018 60.2418 68.0018 57.891V10.1092C68.002 7.75844 66.0964 5.85284 63.7456 5.85284Z" fill="url(#paint1_linear)"/>
<path d="M68.002 16.2366H0.00195312V10.1092C0.00195312 7.75858 1.90755 5.85284 4.25835 5.85284H63.7456C66.0962 5.85284 68.002 7.75844 68.002 10.1092V16.2366Z" fill="url(#paint2_linear)"/>
<path d="M63.7448 5.85284H58.4088C60.7596 5.85284 62.6652 7.75844 62.6652 10.1092V16.2366H68.0012V10.1092C68.0012 7.75844 66.0956 5.85284 63.7448 5.85284Z" fill="url(#paint3_linear)"/>
<path d="M5.33473 13.7584C6.85791 13.7584 8.09269 12.5236 8.09269 11.0004C8.09269 9.47727 6.85791 8.24249 5.33473 8.24249C3.81156 8.24249 2.57678 9.47727 2.57678 11.0004C2.57678 12.5236 3.81156 13.7584 5.33473 13.7584Z" fill="url(#paint4_linear)"/>
<path d="M5.33441 12.8716C6.36775 12.8716 7.20544 12.0339 7.20544 11.0005C7.20544 9.96721 6.36775 9.12952 5.33441 9.12952C4.30107 9.12952 3.46338 9.96721 3.46338 11.0005C3.46338 12.0339 4.30107 12.8716 5.33441 12.8716Z" fill="url(#paint5_linear)"/>
<path d="M11.7861 13.7584C13.3093 13.7584 14.5441 12.5236 14.5441 11.0004C14.5441 9.47727 13.3093 8.24249 11.7861 8.24249C10.263 8.24249 9.0282 9.47727 9.0282 11.0004C9.0282 12.5236 10.263 13.7584 11.7861 13.7584Z" fill="url(#paint6_linear)"/>
<path d="M11.7858 12.8716C12.8192 12.8716 13.6569 12.0339 13.6569 11.0005C13.6569 9.96721 12.8192 9.12952 11.7858 9.12952C10.7525 9.12952 9.91479 9.96721 9.91479 11.0005C9.91479 12.0339 10.7525 12.8716 11.7858 12.8716Z" fill="url(#paint7_linear)"/>
<path d="M18.2374 13.7584C19.7606 13.7584 20.9954 12.5236 20.9954 11.0004C20.9954 9.47727 19.7606 8.24249 18.2374 8.24249C16.7143 8.24249 15.4795 9.47727 15.4795 11.0004C15.4795 12.5236 16.7143 13.7584 18.2374 13.7584Z" fill="url(#paint8_linear)"/>
<path d="M18.2371 12.8716C19.2705 12.8716 20.1081 12.0339 20.1081 11.0005C20.1081 9.96721 19.2705 9.12952 18.2371 9.12952C17.2038 9.12952 16.3661 9.96721 16.3661 11.0005C16.3661 12.0339 17.2038 12.8716 18.2371 12.8716Z" fill="url(#paint9_linear)"/>
<path d="M28.2406 51.4486C28.3872 51.8851 28.5336 52.3215 28.6795 52.7581C28.8155 53.1645 29.1873 53.4442 29.6033 53.4497C30.8693 53.4666 32.1353 53.4666 33.4014 53.4497C33.8174 53.4441 34.1892 53.1644 34.3252 52.7581C34.4712 52.3216 34.6175 51.8851 34.7641 51.4486C33.6834 50.8109 32.5956 50.1591 31.5023 49.4984C30.4091 50.1591 29.3213 50.8109 28.2406 51.4486Z" fill="url(#paint10_linear)"/>
<path d="M32.4898 44.8727C32.4869 47.0743 32.4822 49.276 32.4756 51.4776C33.2383 51.4732 34.0011 51.4636 34.7639 51.4487C35.301 51.4381 35.7426 50.9851 35.7493 50.4404C35.7604 49.8954 35.803 44.85 35.7989 44.85C34.6959 44.8623 33.5929 44.8698 32.4898 44.8727Z" fill="url(#paint11_linear)"/>
<path d="M27.2552 50.4404C27.262 50.985 27.7035 51.438 28.2407 51.4487C29.6524 51.4761 31.0642 51.4857 32.4759 51.4776C33.0131 51.4744 33.4515 51.0257 33.4548 50.479C33.4599 49.9323 33.4795 44.869 33.4776 44.8689C31.387 44.8796 29.2963 44.8733 27.2057 44.85C27.2016 44.85 27.2441 49.8956 27.2552 50.4404Z" fill="url(#paint12_linear)"/>
<path d="M27.2064 44.8501C27.2024 44.8501 27.245 49.8956 27.256 50.4404C27.2628 50.9851 27.7043 51.4381 28.2415 51.4487C30.416 51.491 32.5905 51.491 34.765 51.4487C35.3022 51.4381 35.7437 50.9851 35.7505 50.4404C35.7615 49.8954 35.8041 44.85 35.8001 44.85C32.9355 44.882 30.071 44.882 27.2064 44.8501Z" fill="url(#paint13_linear)"/>
<path d="M23.2611 30.1369C22.1446 31.7663 21.4671 33.6851 21.4468 35.7299C21.4181 38.4398 22.5561 40.8939 24.3881 42.7197C24.8033 43.1326 25.2185 43.5468 25.6334 43.9618C26.0067 44.335 26.218 44.8387 26.2221 45.3608C26.2277 46.0614 26.2342 46.7619 26.2417 47.4625C26.2477 48.0058 26.6923 48.4571 27.2338 48.4674C30.0797 48.521 32.9257 48.521 35.7716 48.4674C36.3131 48.4571 36.7577 48.0058 36.7637 47.4625C36.7712 46.7619 36.7777 46.0614 36.7832 45.3608C36.7874 44.8386 36.9987 44.3352 37.372 43.9618C37.787 43.5468 38.2021 43.1325 38.6173 42.7197C40.0218 41.3214 41.0188 39.5474 41.3936 37.5788C35.3068 35.0626 29.2192 32.3808 23.2611 30.1369Z" fill="url(#paint14_linear)"/>
<path d="M41.3932 37.5787C41.5072 36.9798 41.5645 36.3624 41.5582 35.7298C41.5549 35.3911 41.5335 35.0561 41.4951 34.7254C37.1748 31.8164 32.869 28.7939 28.6979 26.0027C26.4927 26.7124 24.5768 28.2221 23.2607 30.1368C23.8636 31.0264 24.5694 31.8768 25.3778 32.6747C29.6737 36.9264 35.7674 38.6106 41.3932 37.5787Z" fill="url(#paint15_linear)"/>
<path d="M41.4953 34.7255C40.8962 29.7971 36.5593 25.5763 31.5025 25.5604C30.5295 25.5604 29.5896 25.7163 28.6981 26.0028C29.0329 28.0972 30.0001 30.0979 31.6116 31.7218C34.2785 34.4149 38.0543 35.3942 41.4953 34.7255Z" fill="url(#paint16_linear)"/>
<path d="M24.5114 31.754C23.8346 32.9332 23.4365 34.2754 23.4252 35.6964C23.4073 37.8224 24.2502 39.817 25.7827 41.3434C26.1969 41.7556 26.6113 42.1689 27.0255 42.583C27.776 43.3328 28.1905 44.3291 28.1956 45.3851C28.1974 45.7591 28.1994 46.1331 28.2016 46.5072C28.6455 46.5122 29.0893 46.5162 29.5331 46.5192C30.1885 46.1936 30.8452 45.8652 31.5028 45.5349C32.1604 45.8652 32.8171 46.1936 33.4725 46.5192C33.9163 46.5162 34.3601 46.5122 34.804 46.5072C34.8061 46.1332 34.8081 45.7592 34.81 45.3851C34.8151 44.329 35.2296 43.3329 35.9801 42.5829C36.3943 42.1689 36.8086 41.7556 37.2228 41.3435C38.2277 40.3433 38.9368 39.1387 39.3001 37.8307C34.3465 35.7805 29.3934 33.6464 24.5114 31.754Z" fill="url(#paint17_linear)"/>
<path d="M39.2996 37.8303C39.4902 37.1437 39.5857 36.4281 39.5799 35.6961C39.5778 35.4367 39.5625 35.1797 39.5353 34.9261C36.0535 32.5791 32.5836 30.179 29.1888 27.907C27.2167 28.5433 25.5431 29.9594 24.5107 31.7537C24.7855 32.0674 25.0741 32.3749 25.3777 32.6746C29.1431 36.3945 34.299 38.1696 39.2996 37.8303Z" fill="url(#paint18_linear)"/>
<path d="M39.5359 34.9264C39.0909 30.9086 35.6078 27.5507 31.5027 27.5425C30.6993 27.5425 29.9233 27.671 29.1893 27.9073C29.6912 29.2964 30.4981 30.5995 31.6118 31.7219C33.779 33.9078 36.679 34.9702 39.5359 34.9264Z" fill="url(#paint19_linear)"/>
<path d="M33.4818 42.8886C33.4838 41.7954 32.5971 40.9102 31.5027 40.9099C30.4082 40.9102 29.5215 41.7955 29.5236 42.8886C29.5256 44.0987 29.5287 45.3087 29.533 46.5188C30.8461 46.5276 32.1592 46.5276 33.4724 46.5188C33.4766 45.3087 33.4798 44.0987 33.4818 42.8886Z" fill="url(#paint20_linear)"/>
</g>
<defs>
<linearGradient id="paint0_linear" x1="-0.300316" y1="34" x2="66.497" y2="34" gradientUnits="userSpaceOnUse">
<stop stop-color="#D5E6FF"/>
<stop stop-color="#F6F9FD"/>
<stop offset="0.0001" stop-color="#FAFCFF"/>
<stop offset="0.593" stop-color="#E7F3FF"/>
<stop offset="1" stop-color="#E1EAF9"/>
</linearGradient>
<linearGradient id="paint1_linear" x1="0.215553" y1="34" x2="67.0129" y2="34" gradientUnits="userSpaceOnUse">
<stop stop-color="#E6EEF3"/>
<stop offset="1" stop-color="#B0CCF9"/>
</linearGradient>
<linearGradient id="paint2_linear" x1="-9.53852" y1="11.0447" x2="81.1332" y2="11.0447" gradientUnits="userSpaceOnUse">
<stop stop-color="#CDDEFA"/>
<stop offset="1" stop-color="#92B8F3"/>
</linearGradient>
<linearGradient id="paint3_linear" x1="57.063" y1="11.0447" x2="69.8536" y2="11.0447" gradientUnits="userSpaceOnUse">
<stop stop-color="#91B7F3"/>
<stop offset="1" stop-color="#78A1E2"/>
</linearGradient>
<linearGradient id="paint4_linear" x1="1.8029" y1="11.0004" x2="9.15785" y2="11.0004" gradientUnits="userSpaceOnUse">
<stop stop-color="#CDDEFA"/>
<stop offset="1" stop-color="#92B8F3"/>
</linearGradient>
<linearGradient id="paint5_linear" x1="2.93836" y1="11.0005" x2="7.92805" y2="11.0005" gradientUnits="userSpaceOnUse">
<stop stop-color="#B2CFFE"/>
<stop offset="1" stop-color="#6591D7"/>
</linearGradient>
<linearGradient id="paint6_linear" x1="8.25431" y1="11.0004" x2="15.6093" y2="11.0004" gradientUnits="userSpaceOnUse">
<stop stop-color="#CDDEFA"/>
<stop offset="1" stop-color="#92B8F3"/>
</linearGradient>
<linearGradient id="paint7_linear" x1="9.91479" y1="11.0006" x2="13.6569" y2="11.0006" gradientUnits="userSpaceOnUse">
<stop stop-color="#FAFCFF"/>
<stop offset="0.593" stop-color="#CAE2FA"/>
<stop offset="1" stop-color="#BCD7F8"/>
</linearGradient>
<linearGradient id="paint8_linear" x1="14.7056" y1="11.0004" x2="22.0606" y2="11.0004" gradientUnits="userSpaceOnUse">
<stop stop-color="#CDDEFA"/>
<stop offset="1" stop-color="#92B8F3"/>
</linearGradient>
<linearGradient id="paint9_linear" x1="16.3661" y1="11.0006" x2="20.1081" y2="11.0006" gradientUnits="userSpaceOnUse">
<stop stop-color="#FAFCFF"/>
<stop offset="0.593" stop-color="#CAE2FA"/>
<stop offset="1" stop-color="#BCD7F8"/>
</linearGradient>
<linearGradient id="paint10_linear" x1="24.9514" y1="58.5117" x2="35.0312" y2="48.4319" gradientUnits="userSpaceOnUse">
<stop stop-color="#A3B6F8"/>
<stop offset="0.2108" stop-color="#728FDB"/>
<stop offset="0.604167" stop-color="#5C8CD7"/>
<stop offset="1" stop-color="#6499EC"/>
</linearGradient>
<linearGradient id="paint11_linear" x1="32.0985" y1="49.8829" x2="48.6711" y2="33.3104" gradientUnits="userSpaceOnUse">
<stop stop-color="#7AA6EB"/>
<stop offset="0.5" stop-color="#8DB6F3"/>
</linearGradient>
<linearGradient id="paint12_linear" x1="26.3772" y1="51.8245" x2="48.4788" y2="29.7228" gradientUnits="userSpaceOnUse">
<stop stop-color="#99B9EB"/>
<stop offset="0.5" stop-color="#BFD9FF"/>
</linearGradient>
<linearGradient id="paint13_linear" x1="31.5033" y1="45.7388" x2="31.5033" y2="53.0132" gradientUnits="userSpaceOnUse">
<stop stop-color="#4C7EFF"/>
<stop offset="0.2402" stop-color="#5987FF" stop-opacity="0.76"/>
<stop offset="0.6026" stop-color="#6993FF" stop-opacity="0.397"/>
<stop offset="0.8656" stop-color="#74A3FF" stop-opacity="0.134"/>
<stop offset="1" stop-color="#78AEFF" stop-opacity="0"/>
</linearGradient>
<linearGradient id="paint14_linear" x1="16.6103" y1="52.4053" x2="47.8547" y2="21.161" gradientUnits="userSpaceOnUse">
<stop stop-color="#6D9ADC"/>
<stop offset="0.2839" stop-color="#7FA9E8"/>
<stop offset="1" stop-color="white"/>
</linearGradient>
<linearGradient id="paint15_linear" x1="14.4705" y1="51.5816" x2="46.1883" y2="19.8639" gradientUnits="userSpaceOnUse">
<stop stop-color="#7BA5E3"/>
<stop offset="1" stop-color="white"/>
</linearGradient>
<linearGradient id="paint16_linear" x1="12.8143" y1="52.6465" x2="40.2932" y2="25.1676" gradientUnits="userSpaceOnUse">
<stop stop-color="#7BA5E3"/>
<stop offset="1" stop-color="#DEEBFF"/>
</linearGradient>
<linearGradient id="paint17_linear" x1="16.5917" y1="52.1966" x2="40.0571" y2="28.7312" gradientUnits="userSpaceOnUse">
<stop stop-color="#7BA5E3"/>
<stop offset="1" stop-color="white"/>
</linearGradient>
<linearGradient id="paint18_linear" x1="12.6523" y1="53.8328" x2="36.4535" y2="30.0316" gradientUnits="userSpaceOnUse">
<stop stop-color="#7BA5E3"/>
<stop offset="1" stop-color="#ECF4FF"/>
</linearGradient>
<linearGradient id="paint19_linear" x1="14.7449" y1="51.0345" x2="34.1859" y2="31.5936" gradientUnits="userSpaceOnUse">
<stop stop-color="#7BA5E3"/>
<stop offset="1" stop-color="#DEEBFF"/>
</linearGradient>
<linearGradient id="paint20_linear" x1="26.7764" y1="49.0148" x2="39.2642" y2="36.5271" gradientUnits="userSpaceOnUse">
<stop stop-color="#6B95D3"/>
<stop offset="0.5" stop-color="#93BBF5"/>
<stop offset="1" stop-color="white"/>
</linearGradient>
<clipPath id="clip0">
<rect width="68" height="68" fill="white" transform="translate(0.00195312 0.000305176)"/>
</clipPath>
</defs>
</svg>
