<svg width="77" height="71" viewBox="0 0 77 71" fill="none" xmlns="http://www.w3.org/2000/svg">
<g clip-path="url(#clip0)" filter="url(#filter0_d)">
<path d="M67.2297 62.1475H7.74248C5.39168 62.1475 3.48608 60.2419 3.48608 57.8911V10.1099C3.48608 7.75921 5.39168 5.85349 7.74248 5.85349H67.2297C69.5804 5.85349 71.4861 7.75907 71.4861 10.1099V57.8912C71.4861 60.2419 69.5805 62.1475 67.2297 62.1475Z" fill="url(#paint0_linear)"/>
<path d="M67.7456 5.85349H8.25835C5.90755 5.85349 4.00195 7.75907 4.00195 10.1099V19.5719H66.532V57.8912C66.532 60.2419 64.6264 62.1476 62.2756 62.1476H67.7454C70.0961 62.1476 72.0018 60.242 72.0018 57.8912V10.1099C72.002 7.75907 70.0964 5.85349 67.7456 5.85349Z" fill="url(#paint1_linear)"/>
<path d="M72.002 16.2371H4.00195V10.1099C4.00195 7.7592 5.90755 5.85349 8.25835 5.85349H67.7456C70.0962 5.85349 72.002 7.75907 72.002 10.1099V16.2371Z" fill="url(#paint2_linear)"/>
<path d="M67.7448 5.85349H62.4088C64.7596 5.85349 66.6652 7.75907 66.6652 10.1099V16.2371H72.0012V10.1099C72.0012 7.75907 70.0956 5.85349 67.7448 5.85349Z" fill="url(#paint3_linear)"/>
<path d="M9.33473 13.759C10.8579 13.759 12.0927 12.5243 12.0927 11.0011C12.0927 9.47793 10.8579 8.24316 9.33473 8.24316C7.81156 8.24316 6.57678 9.47793 6.57678 11.0011C6.57678 12.5243 7.81156 13.759 9.33473 13.759Z" fill="url(#paint4_linear)"/>
<path d="M9.33416 12.8722C10.3675 12.8722 11.2052 12.0345 11.2052 11.0012C11.2052 9.96784 10.3675 9.13016 9.33416 9.13016C8.30082 9.13016 7.46313 9.96784 7.46313 11.0012C7.46313 12.0345 8.30082 12.8722 9.33416 12.8722Z" fill="url(#paint5_linear)"/>
<path d="M15.786 13.759C17.3092 13.759 18.544 12.5243 18.544 11.0011C18.544 9.47793 17.3092 8.24316 15.786 8.24316C14.2629 8.24316 13.0281 9.47793 13.0281 11.0011C13.0281 12.5243 14.2629 13.759 15.786 13.759Z" fill="url(#paint6_linear)"/>
<path d="M15.7855 12.8722C16.8188 12.8722 17.6565 12.0345 17.6565 11.0012C17.6565 9.96784 16.8188 9.13016 15.7855 9.13016C14.7521 9.13016 13.9144 9.96784 13.9144 11.0012C13.9144 12.0345 14.7521 12.8722 15.7855 12.8722Z" fill="url(#paint7_linear)"/>
<path d="M22.2373 13.759C23.7605 13.759 24.9953 12.5243 24.9953 11.0011C24.9953 9.47793 23.7605 8.24316 22.2373 8.24316C20.7141 8.24316 19.4794 9.47793 19.4794 11.0011C19.4794 12.5243 20.7141 13.759 22.2373 13.759Z" fill="url(#paint8_linear)"/>
<path d="M22.2368 12.8722C23.2701 12.8722 24.1078 12.0345 24.1078 11.0012C24.1078 9.96784 23.2701 9.13016 22.2368 9.13016C21.2034 9.13016 20.3657 9.96784 20.3657 11.0012C20.3657 12.0345 21.2034 12.8722 22.2368 12.8722Z" fill="url(#paint9_linear)"/>
<path d="M50.7028 29.7187C51.2354 30.4055 51.1445 31.4993 50.5448 32.1148C49.2714 33.4196 47.9952 34.7217 46.7164 36.0213C44.8134 35.5075 42.7848 35.1029 40.7069 34.7381C42.7816 31.7231 44.8512 28.7259 46.8957 25.7917C48.3054 26.96 49.5745 28.269 50.7028 29.7187Z" fill="url(#paint10_linear)"/>
<path d="M46.2829 25.2995C46.4901 25.4607 46.6943 25.6246 46.8956 25.7915C48.3978 27.03 48.2965 29.3656 46.9032 30.771C45.0411 32.6428 43.1778 34.5132 41.3131 36.3822C40.9557 33.9148 40.5619 31.4952 40.0197 29.2476C41.3061 27.9817 42.5953 26.7183 43.887 25.4576C44.5025 24.8579 45.5961 24.7671 46.2829 25.2995Z" fill="url(#paint11_linear)"/>
<path d="M46.7162 36.0209C46.2068 36.5388 45.397 37.3596 45.3968 37.3597C43.5679 36.3814 41.6199 35.5121 39.6196 34.6888C41.2133 34.2264 42.802 33.7651 44.3646 33.321C45.1832 34.1862 45.9671 35.0862 46.7162 36.0209Z" fill="url(#paint12_linear)"/>
<path d="M44.3645 33.3214C42.7835 34.9086 41.2013 36.4949 39.6184 38.0802C39.3489 35.5203 39.0642 32.983 38.642 30.6053C39.0879 30.1652 39.5342 29.7254 39.9807 29.2859C41.5387 30.5344 42.9999 31.8795 44.3645 33.3214Z" fill="url(#paint13_linear)"/>
<path d="M45.3975 37.36C41.4892 41.32 37.5558 45.2551 33.5974 49.165C31.8199 48.6825 30.0653 48.1829 28.3763 47.6264C32.2329 43.7699 36.0895 39.9134 39.946 36.0568C40.9707 35.597 41.9925 35.1385 43.0075 34.684C43.8328 35.5474 44.6295 36.4394 45.3975 37.36Z" fill="url(#paint14_linear)"/>
<path d="M43.0068 34.6839C38.1401 39.5662 33.2643 44.4393 28.3793 49.3033C27.7861 47.0992 27.3029 44.7661 26.8369 42.4053C30.747 38.447 34.6821 34.5136 38.6422 30.6052C40.1764 31.8854 41.6313 33.245 43.0068 34.6839Z" fill="url(#paint15_linear)"/>
<path d="M27.5262 48.4759C26.0864 49.9157 24.6466 51.3554 23.2068 52.7952C23.4298 53.0186 23.7723 53.0807 24.0748 52.9593C25.1697 52.5193 26.2743 52.0751 27.383 51.6306C27.414 50.6011 27.4643 49.5465 27.5262 48.4759Z" fill="url(#paint16_linear)"/>
<path d="M23.6809 52.579C24.522 51.9017 25.3641 51.2247 26.2069 50.5479C26.646 49.8591 27.0859 49.1683 27.526 48.4759C26.4554 48.5378 25.4009 48.588 24.3713 48.619C23.9268 49.7277 23.4826 50.8324 23.0427 51.9273C22.9213 52.2297 22.9833 52.5721 23.2066 52.7952C23.2625 52.851 23.4486 52.7661 23.6809 52.579Z" fill="url(#paint17_linear)"/>
<path d="M27.383 51.6305C29.452 50.801 31.5353 49.9704 33.5965 49.1651C32.6803 48.3914 31.7908 47.591 30.928 46.7639C29.566 46.8423 28.2166 46.9125 26.898 46.9589C26.6597 48.1683 26.4264 49.3682 26.2069 50.5479C26.5896 50.9181 26.9816 51.2789 27.383 51.6305Z" fill="url(#paint18_linear)"/>
<path d="M30.9279 46.7636C29.4899 45.385 28.1261 43.9321 26.8365 42.405C26.0312 44.4663 25.2007 46.5496 24.3712 48.6186C24.9571 49.2875 25.5689 49.9305 26.2068 50.5475C27.7793 49.2848 29.3541 48.0232 30.9279 46.7636Z" fill="url(#paint19_linear)"/>
</g>
<defs>
<filter id="filter0_d" x="0.00195312" y="0.000793457" width="76" height="75.9995" filterUnits="userSpaceOnUse" color-interpolation-filters="sRGB">
<feFlood flood-opacity="0" result="BackgroundImageFix"/>
<feColorMatrix in="SourceAlpha" type="matrix" values="0 0 0 0 0 0 0 0 0 0 0 0 0 0 0 0 0 0 127 0"/>
<feOffset dy="4"/>
<feGaussianBlur stdDeviation="2"/>
<feColorMatrix type="matrix" values="0 0 0 0 0 0 0 0 0 0 0 0 0 0 0 0 0 0 0.25 0"/>
<feBlend mode="normal" in2="BackgroundImageFix" result="effect1_dropShadow"/>
<feBlend mode="normal" in="SourceGraphic" in2="effect1_dropShadow" result="shape"/>
</filter>
<linearGradient id="paint0_linear" x1="3.69968" y1="34.0005" x2="70.497" y2="34.0005" gradientUnits="userSpaceOnUse">
<stop stop-color="#D5E6FF"/>
<stop stop-color="#F6F9FD"/>
<stop offset="0.0001" stop-color="#FAFCFF"/>
<stop offset="0.593" stop-color="#E7F3FF"/>
<stop offset="1" stop-color="#E1EAF9"/>
</linearGradient>
<linearGradient id="paint1_linear" x1="4.21555" y1="34.0005" x2="71.0129" y2="34.0005" gradientUnits="userSpaceOnUse">
<stop stop-color="#E6EEF3"/>
<stop offset="1" stop-color="#B0CCF9"/>
</linearGradient>
<linearGradient id="paint2_linear" x1="-5.53852" y1="11.0453" x2="85.1332" y2="11.0453" gradientUnits="userSpaceOnUse">
<stop stop-color="#CDDEFA"/>
<stop offset="1" stop-color="#92B8F3"/>
</linearGradient>
<linearGradient id="paint3_linear" x1="61.063" y1="11.0453" x2="73.8536" y2="11.0453" gradientUnits="userSpaceOnUse">
<stop stop-color="#91B7F3"/>
<stop offset="1" stop-color="#78A1E2"/>
</linearGradient>
<linearGradient id="paint4_linear" x1="5.8029" y1="11.0011" x2="13.1578" y2="11.0011" gradientUnits="userSpaceOnUse">
<stop stop-color="#CDDEFA"/>
<stop offset="1" stop-color="#92B8F3"/>
</linearGradient>
<linearGradient id="paint5_linear" x1="6.93812" y1="11.0012" x2="11.9278" y2="11.0012" gradientUnits="userSpaceOnUse">
<stop stop-color="#B2CFFE"/>
<stop offset="1" stop-color="#6591D7"/>
</linearGradient>
<linearGradient id="paint6_linear" x1="12.2542" y1="11.0011" x2="19.6091" y2="11.0011" gradientUnits="userSpaceOnUse">
<stop stop-color="#CDDEFA"/>
<stop offset="1" stop-color="#92B8F3"/>
</linearGradient>
<linearGradient id="paint7_linear" x1="13.9144" y1="11.0012" x2="17.6565" y2="11.0012" gradientUnits="userSpaceOnUse">
<stop stop-color="#FAFCFF"/>
<stop offset="0.593" stop-color="#CAE2FA"/>
<stop offset="1" stop-color="#BCD7F8"/>
</linearGradient>
<linearGradient id="paint8_linear" x1="18.7055" y1="11.0011" x2="26.0604" y2="11.0011" gradientUnits="userSpaceOnUse">
<stop stop-color="#CDDEFA"/>
<stop offset="1" stop-color="#92B8F3"/>
</linearGradient>
<linearGradient id="paint9_linear" x1="20.3657" y1="11.0012" x2="24.1078" y2="11.0012" gradientUnits="userSpaceOnUse">
<stop stop-color="#FAFCFF"/>
<stop offset="0.593" stop-color="#CAE2FA"/>
<stop offset="1" stop-color="#BCD7F8"/>
</linearGradient>
<linearGradient id="paint10_linear" x1="39.2553" y1="30.9065" x2="53.0515" y2="30.9065" gradientUnits="userSpaceOnUse">
<stop stop-color="#568DE2"/>
<stop offset="1" stop-color="#6591D7"/>
</linearGradient>
<linearGradient id="paint11_linear" x1="41.0161" y1="30.6656" x2="48.6495" y2="30.6656" gradientUnits="userSpaceOnUse">
<stop stop-color="#C0D5FF"/>
<stop offset="0.5484" stop-color="#94BBF4"/>
<stop offset="1" stop-color="#93B4F5"/>
</linearGradient>
<linearGradient id="paint12_linear" x1="39.6196" y1="35.3404" x2="46.7162" y2="35.3404" gradientUnits="userSpaceOnUse">
<stop stop-color="#FAFCFF"/>
<stop offset="0.593" stop-color="#CAE2FA"/>
<stop offset="1" stop-color="#BCD7F8"/>
</linearGradient>
<linearGradient id="paint13_linear" x1="38.642" y1="33.6831" x2="44.3645" y2="33.6831" gradientUnits="userSpaceOnUse">
<stop stop-color="#FAFCFF"/>
<stop offset="0.593" stop-color="#CAE2FA"/>
<stop offset="1" stop-color="#BCD7F8"/>
</linearGradient>
<linearGradient id="paint14_linear" x1="25.9883" y1="41.9245" x2="48.6844" y2="41.9245" gradientUnits="userSpaceOnUse">
<stop stop-color="#568DE2"/>
<stop offset="1" stop-color="#6591D7"/>
</linearGradient>
<linearGradient id="paint15_linear" x1="28.8596" y1="39.9543" x2="44.3547" y2="39.9543" gradientUnits="userSpaceOnUse">
<stop stop-color="#C0D5FF"/>
<stop offset="0.5484" stop-color="#94BBF4"/>
<stop offset="1" stop-color="#93B4F5"/>
</linearGradient>
<linearGradient id="paint16_linear" x1="25.3681" y1="53.9801" x2="25.3681" y2="41.5777" gradientUnits="userSpaceOnUse">
<stop stop-color="#0056E0"/>
<stop offset="0.1752" stop-color="#0069D7"/>
<stop offset="0.5318" stop-color="#009BC1"/>
<stop offset="1" stop-color="#00E5A1"/>
</linearGradient>
<linearGradient id="paint17_linear" x1="25.2555" y1="56.0582" x2="25.2555" y2="37.7371" gradientUnits="userSpaceOnUse">
<stop stop-color="#0056E0"/>
<stop offset="0.2719" stop-color="#0080CD"/>
<stop offset="0.769" stop-color="#00C9AD"/>
<stop offset="1" stop-color="#00E5A1"/>
</linearGradient>
<linearGradient id="paint18_linear" x1="26.2069" y1="49.1972" x2="33.5965" y2="49.1972" gradientUnits="userSpaceOnUse">
<stop stop-color="#FAFCFF"/>
<stop offset="0.593" stop-color="#CAE2FA"/>
<stop offset="1" stop-color="#BCD7F8"/>
</linearGradient>
<linearGradient id="paint19_linear" x1="24.3712" y1="46.4763" x2="30.9279" y2="46.4763" gradientUnits="userSpaceOnUse">
<stop stop-color="#FAFCFF"/>
<stop offset="0.593" stop-color="#CAE2FA"/>
<stop offset="1" stop-color="#BCD7F8"/>
</linearGradient>
<clipPath id="clip0">
<rect width="68" height="67.9995" fill="white" transform="translate(4.00195 0.000793457)"/>
</clipPath>
</defs>
</svg>
