<svg width="154" height="25" viewBox="0 0 154 25" fill="none" xmlns="http://www.w3.org/2000/svg">
<path d="M22.1727 8.62062L15.974 7.71974L13.203 2.10206C13.1273 1.94825 13.0028 1.82374 12.849 1.74806C12.4632 1.55763 11.9945 1.71632 11.8016 2.10206L9.0306 7.71974L2.83187 8.62062C2.66097 8.64503 2.50472 8.72559 2.38509 8.84767C2.24047 8.99631 2.16077 9.1963 2.16352 9.40368C2.16627 9.61105 2.25123 9.80886 2.39974 9.95362L6.88461 14.3262L5.82504 20.5005C5.80019 20.6441 5.81608 20.7918 5.87091 20.9269C5.92575 21.062 6.01732 21.1789 6.13526 21.2646C6.2532 21.3503 6.39278 21.4012 6.53817 21.4115C6.68356 21.4219 6.82895 21.3913 6.95785 21.3233L12.5023 18.4082L18.0467 21.3233C18.1981 21.4038 18.3739 21.4307 18.5423 21.4014C18.9671 21.3281 19.2528 20.9253 19.1795 20.5005L18.12 14.3262L22.6048 9.95362C22.7269 9.83399 22.8075 9.67774 22.8319 9.50684C22.8978 9.0796 22.5999 8.68409 22.1727 8.62062Z" fill="url(#paint0_linear)"/>
<path d="M54.1727 8.62062L47.974 7.71974L45.203 2.10206C45.1273 1.94825 45.0028 1.82374 44.849 1.74806C44.4632 1.55763 43.9945 1.71632 43.8016 2.10206L41.0306 7.71974L34.8319 8.62062C34.661 8.64503 34.5047 8.72559 34.3851 8.84767C34.2405 8.99631 34.1608 9.1963 34.1635 9.40368C34.1663 9.61105 34.2512 9.80886 34.3997 9.95362L38.8846 14.3262L37.825 20.5005C37.8002 20.6441 37.8161 20.7918 37.8709 20.9269C37.9257 21.062 38.0173 21.1789 38.1353 21.2646C38.2532 21.3503 38.3928 21.4012 38.5382 21.4115C38.6836 21.4219 38.8289 21.3913 38.9578 21.3233L44.5023 18.4082L50.0467 21.3233C50.1981 21.4038 50.3739 21.4307 50.5423 21.4014C50.9671 21.3281 51.2528 20.9253 51.1795 20.5005L50.12 14.3262L54.6048 9.95362C54.7269 9.83399 54.8075 9.67774 54.8319 9.50684C54.8978 9.0796 54.5999 8.68409 54.1727 8.62062Z" fill="url(#paint1_linear)"/>
<path d="M86.1727 8.62062L79.974 7.71974L77.203 2.10206C77.1273 1.94825 77.0028 1.82374 76.849 1.74806C76.4632 1.55763 75.9945 1.71632 75.8016 2.10206L73.0306 7.71974L66.8319 8.62062C66.661 8.64503 66.5047 8.72559 66.3851 8.84767C66.2405 8.99631 66.1608 9.1963 66.1635 9.40368C66.1663 9.61105 66.2512 9.80886 66.3997 9.95362L70.8846 14.3262L69.825 20.5005C69.8002 20.6441 69.8161 20.7918 69.8709 20.9269C69.9257 21.062 70.0173 21.1789 70.1353 21.2646C70.2532 21.3503 70.3928 21.4012 70.5382 21.4115C70.6836 21.4219 70.8289 21.3913 70.9578 21.3233L76.5023 18.4082L82.0467 21.3233C82.1981 21.4038 82.3739 21.4307 82.5423 21.4014C82.9671 21.3281 83.2528 20.9253 83.1795 20.5005L82.12 14.3262L86.6048 9.95362C86.7269 9.83399 86.8075 9.67774 86.8319 9.50684C86.8978 9.0796 86.5999 8.68409 86.1727 8.62062Z" fill="url(#paint2_linear)"/>
<path d="M118.173 8.62062L111.974 7.71974L109.203 2.10206C109.127 1.94825 109.003 1.82374 108.849 1.74806C108.463 1.55763 107.994 1.71632 107.802 2.10206L105.031 7.71974L98.8319 8.62062C98.661 8.64503 98.5047 8.72559 98.3851 8.84767C98.2405 8.99631 98.1608 9.1963 98.1635 9.40368C98.1663 9.61105 98.2512 9.80886 98.3997 9.95362L102.885 14.3262L101.825 20.5005C101.8 20.6441 101.816 20.7918 101.871 20.9269C101.926 21.062 102.017 21.1789 102.135 21.2646C102.253 21.3503 102.393 21.4012 102.538 21.4115C102.684 21.4219 102.829 21.3913 102.958 21.3233L108.502 18.4082L114.047 21.3233C114.198 21.4038 114.374 21.4307 114.542 21.4014C114.967 21.3281 115.253 20.9253 115.18 20.5005L114.12 14.3262L118.605 9.95362C118.727 9.83399 118.807 9.67774 118.832 9.50684C118.898 9.0796 118.6 8.68409 118.173 8.62062Z" fill="url(#paint3_linear)"/>
<path d="M150.173 8.62062L143.974 7.71974L141.203 2.10206C141.127 1.94825 141.003 1.82374 140.849 1.74806C140.463 1.55763 139.994 1.71632 139.802 2.10206L137.031 7.71974L130.832 8.62062C130.661 8.64503 130.505 8.72559 130.385 8.84767C130.24 8.99631 130.161 9.1963 130.164 9.40368C130.166 9.61105 130.251 9.80886 130.4 9.95362L134.885 14.3262L133.825 20.5005C133.8 20.6441 133.816 20.7918 133.871 20.9269C133.926 21.062 134.017 21.1789 134.135 21.2646C134.253 21.3503 134.393 21.4012 134.538 21.4115C134.684 21.4219 134.829 21.3913 134.958 21.3233L140.502 18.4082L146.047 21.3233C146.198 21.4038 146.374 21.4307 146.542 21.4014C146.967 21.3281 147.253 20.9253 147.18 20.5005L146.12 14.3262L150.605 9.95362C150.727 9.83399 150.807 9.67774 150.832 9.50684C150.898 9.0796 150.6 8.68409 150.173 8.62062Z" fill="url(#paint4_linear)"/>
<defs>
<linearGradient id="paint0_linear" x1="-0.737631" y1="11.5405" x2="26.834" y2="11.5405" gradientUnits="userSpaceOnUse">
<stop stop-color="#CDDEFA"/>
<stop offset="1" stop-color="#92B8F3"/>
</linearGradient>
<linearGradient id="paint1_linear" x1="31.2624" y1="11.5405" x2="58.834" y2="11.5405" gradientUnits="userSpaceOnUse">
<stop stop-color="#CDDEFA"/>
<stop offset="1" stop-color="#92B8F3"/>
</linearGradient>
<linearGradient id="paint2_linear" x1="63.2624" y1="11.5405" x2="90.834" y2="11.5405" gradientUnits="userSpaceOnUse">
<stop stop-color="#CDDEFA"/>
<stop offset="1" stop-color="#92B8F3"/>
</linearGradient>
<linearGradient id="paint3_linear" x1="95.2624" y1="11.5405" x2="122.834" y2="11.5405" gradientUnits="userSpaceOnUse">
<stop stop-color="#CDDEFA"/>
<stop offset="1" stop-color="#92B8F3"/>
</linearGradient>
<linearGradient id="paint4_linear" x1="127.262" y1="11.5405" x2="154.834" y2="11.5405" gradientUnits="userSpaceOnUse">
<stop stop-color="#CDDEFA"/>
<stop offset="1" stop-color="#92B8F3"/>
</linearGradient>
</defs>
</svg>
