<svg width="69" height="68" viewBox="0 0 69 68" fill="none" xmlns="http://www.w3.org/2000/svg">
<path d="M14.3906 62.4689C21.9404 69.8843 34.0714 69.8441 41.5699 62.3456L62.3474 41.5682C69.8459 34.0697 69.8862 21.9388 62.4707 14.389C62.4603 14.3783 62.4515 14.3667 62.441 14.356L62.3474 14.2624L60.9822 12.8972C58.4196 10.3347 54.2651 10.3347 51.7026 12.8972L49.323 15.2768C46.7604 17.8393 46.7604 21.9939 49.323 24.5564L50.7819 26.0153C50.853 26.0864 50.9274 26.1524 51.0044 26.213C52.9607 27.7528 53.8947 30.2782 53.1567 32.656C52.6066 34.4285 51.6298 36.097 50.2262 37.5006L37.502 50.2247C36.0984 51.6283 34.4299 52.6051 32.6574 53.1552C30.2798 53.8932 27.7543 52.9592 26.2144 51.0029C26.1538 50.9259 26.0879 50.8515 26.0167 50.7804L24.5578 49.3215C21.9952 46.759 17.8407 46.759 15.2782 49.3215L12.8986 51.7011C10.3361 54.2636 10.3361 58.4181 12.8986 60.9806L14.2638 62.3458L14.3574 62.4394C14.3683 62.4497 14.3799 62.4585 14.3906 62.4689Z" fill="url(#paint0_linear)"/>
<path d="M13.2083 0.00231934H33.3055C40.5989 0.00231934 46.5114 5.91495 46.5114 13.2085V18.7148C46.5114 23.8471 43.5837 28.2956 39.3073 30.4814V38.1619C39.3073 40.1545 36.8983 41.1524 35.4892 39.7434L27.667 31.921H13.2083C5.91493 31.921 0.00244141 26.0084 0.00244141 18.7148V13.2085C0.00244141 5.91495 5.91493 0.00231934 13.2083 0.00231934V0.00231934Z" fill="url(#paint1_linear)"/>
<path d="M33.3059 0H27.97C35.2634 0 41.1759 5.91244 41.1759 13.2058V18.7118C41.1759 23.2026 38.9343 27.1696 35.5091 29.5554C34.5349 30.234 33.9718 31.3615 33.9718 32.5488V38.1583C33.9718 38.1791 33.9699 38.199 33.9695 38.2195L35.4898 39.7398C36.8987 41.1487 39.3078 40.1508 39.3078 38.1583V30.478C43.5842 28.2923 46.512 23.844 46.512 18.7118V13.2058C46.5119 5.91244 40.5994 0 33.3059 0V0Z" fill="url(#paint2_linear)"/>
<path d="M62.4714 14.3891C62.461 14.3782 62.4522 14.3668 62.4417 14.3561L62.3481 14.2625L60.9827 12.8972C59.0067 10.9211 56.0843 10.4705 53.675 11.5421C54.3901 11.8601 55.0603 12.3108 55.6467 12.8972L57.0121 14.2625L57.1057 14.3561C57.1162 14.3666 57.125 14.3782 57.1354 14.3891C64.5508 21.939 64.5106 34.0701 57.0121 41.5686L36.2347 62.3465C33.144 65.4372 29.2663 67.2595 25.2468 67.8163C31.0356 68.621 37.1193 66.7979 41.5706 62.3465L62.3481 41.5687C69.8466 34.0701 69.8868 21.939 62.4714 14.3891Z" fill="url(#paint3_linear)"/>
<path d="M22.1595 52.4705C25.7754 55.9396 31.5027 55.8776 35.0459 52.3344L35.4911 51.8892L35.4196 51.8849C34.5463 52.433 33.6175 52.8572 32.6576 53.155C31.2058 53.6055 29.699 53.4327 28.395 52.7844C28.3878 52.7808 28.379 52.7769 28.3704 52.7732C28.3711 52.7729 28.3718 52.7726 28.3724 52.7724C27.5501 52.3593 26.8089 51.7576 26.2149 51.0028C26.1542 50.9258 26.0883 50.8515 26.0171 50.7803L24.5582 49.3214C22.5822 47.3455 19.6598 46.8948 17.2505 47.9664C17.5626 48.1053 19.7705 50.1784 22.1595 52.4705Z" fill="url(#paint4_linear)"/>
<path d="M28.0347 16.2223C26.0443 17.7785 26.008 18.8641 26.008 20.7461C26.008 21.4337 25.6462 22.2298 23.873 22.2298C22.3893 22.2298 21.8826 21.687 21.8826 19.8051C21.8826 16.6928 23.2578 15.209 24.3073 14.3043C25.5015 13.2908 27.528 12.169 27.528 10.2149C27.528 8.55002 26.0806 7.75413 24.271 7.75413C20.5798 7.75413 21.3759 10.5406 19.4217 10.5406C18.4446 10.5406 17.2504 9.88925 17.2504 8.47775C17.2504 6.52357 19.4941 3.6283 24.3795 3.6283C29.0116 3.6283 32.0877 6.19783 32.0877 9.59951C32.0879 13.0015 29.0118 15.4623 28.0347 16.2223ZM26.6956 27.5134C26.6956 28.9973 25.4652 30.3002 23.9091 30.3002C22.3531 30.3002 21.1589 28.9973 21.1589 27.5134C21.1589 25.9937 22.3894 24.727 23.9091 24.727C25.429 24.727 26.6956 25.9937 26.6956 27.5134Z" fill="url(#paint5_linear)"/>
<path d="M26.6224 14.7923C24.632 16.3484 24.5957 17.434 24.5957 19.3159C24.5957 20.0035 24.2338 20.7996 22.4606 20.7996C20.9769 20.7996 20.4703 20.2568 20.4703 18.375C20.4703 15.2627 21.8455 13.779 22.8949 12.8743C24.0892 11.8608 26.1157 10.7391 26.1157 8.78499C26.1157 7.12019 24.6682 6.32433 22.8586 6.32433C19.1675 6.32433 19.9636 9.11072 18.0093 9.11072C17.0323 9.11072 15.838 8.45939 15.838 7.04793C15.838 5.0938 18.0817 2.19861 22.9672 2.19861C27.5993 2.19861 30.6754 4.76807 30.6754 8.16966C30.6754 11.5716 27.5993 14.0324 26.6224 14.7923ZM25.2833 26.0832C25.2833 27.5671 24.0529 28.8699 22.4968 28.8699C20.9408 28.8699 19.7465 27.5671 19.7465 26.0832C19.7465 24.5635 20.9771 23.2968 22.4968 23.2968C24.0166 23.2968 25.2833 24.5634 25.2833 26.0832Z" fill="url(#paint6_linear)"/>
<defs>
<linearGradient id="paint0_linear" x1="18.1098" y1="39.4877" x2="72.7555" y2="39.4877" gradientUnits="userSpaceOnUse">
<stop stop-color="#C0D5FF"/>
<stop offset="0.5484" stop-color="#94BBF4"/>
<stop offset="1" stop-color="#93B4F5"/>
</linearGradient>
<linearGradient id="paint1_linear" x1="0.284573" y1="20.2027" x2="50.7689" y2="20.2027" gradientUnits="userSpaceOnUse">
<stop stop-color="#ECF5FE"/>
<stop offset="0.593" stop-color="#C5DFFA"/>
<stop offset="1" stop-color="#AFCCF4"/>
</linearGradient>
<linearGradient id="paint2_linear" x1="18.7417" y1="20.1997" x2="38.5397" y2="20.1997" gradientUnits="userSpaceOnUse">
<stop stop-color="#ECF5FE"/>
<stop offset="1" stop-color="#9BB9F7"/>
</linearGradient>
<linearGradient id="paint3_linear" x1="27.5402" y1="39.4889" x2="72.0638" y2="39.4889" gradientUnits="userSpaceOnUse">
<stop stop-color="#7BA8EB"/>
<stop offset="1" stop-color="#8AABEE"/>
</linearGradient>
<linearGradient id="paint4_linear" x1="19.8689" y1="51.2167" x2="48.6076" y2="51.2167" gradientUnits="userSpaceOnUse">
<stop stop-color="#7BA8EB"/>
<stop offset="1" stop-color="#87AAED"/>
</linearGradient>
<linearGradient id="paint5_linear" x1="17.2505" y1="16.9642" x2="32.0879" y2="16.9642" gradientUnits="userSpaceOnUse">
<stop stop-color="#A8CAF5"/>
<stop offset="1" stop-color="#B7CFF1"/>
</linearGradient>
<linearGradient id="paint6_linear" x1="15.838" y1="15.5343" x2="30.6754" y2="15.5343" gradientUnits="userSpaceOnUse">
<stop stop-color="#5C8CD7"/>
<stop offset="0.593" stop-color="#81A3DD"/>
<stop offset="1" stop-color="#5C8CD7"/>
</linearGradient>
</defs>
</svg>
