<svg width="107" height="106" viewBox="0 0 107 106" fill="none" xmlns="http://www.w3.org/2000/svg">
<g clip-path="url(#clip0)">
<path d="M99.367 4.78979H6.63693C2.97245 4.78979 0.00195312 7.76029 0.00195312 11.4246V60.5475C0.00195312 64.2117 2.97245 67.1824 6.63693 67.1824C9.50267 67.1824 11.8259 69.5055 11.8259 72.3715V73.065C11.8259 78.3058 18.1622 80.9302 21.8679 77.2246L30.187 68.9055C31.2902 67.8022 32.7865 67.1824 34.3466 67.1824H99.3672C103.031 67.1824 106.002 64.2119 106.002 60.5475V11.4246C106.002 7.76029 103.031 4.78979 99.367 4.78979Z" fill="url(#paint0_linear)"/>
<path d="M99.3669 4.78979H90.8401C94.5044 4.78979 97.4751 7.76029 97.4751 11.4248V60.5477C97.4751 64.2119 94.5046 67.1827 90.8401 67.1827H99.3669C103.031 67.1827 106.002 64.2122 106.002 60.5477V11.4246C106.002 7.76029 103.031 4.78979 99.3669 4.78979Z" fill="url(#paint1_linear)"/>
<path d="M89.0567 22.857L91.4883 27.7839L96.9255 28.574C99.8002 28.9917 100.948 32.5244 98.868 34.5521L94.9335 38.3873L95.8624 43.8026C96.3535 46.6657 93.3483 48.849 90.7771 47.4972L85.914 44.9404L81.0508 47.497C78.4796 48.8488 75.4744 46.6654 75.9655 43.8024L76.8944 38.3871L72.9599 34.5519C70.8798 32.5242 72.0275 28.9915 74.9024 28.5737L80.3396 27.7837L82.7712 22.8568C84.0567 20.2521 87.7712 20.2521 89.0567 22.857Z" fill="url(#paint2_linear)"/>
<path d="M96.9257 28.5739L93.6229 28.094V28.0979C93.6229 35.8391 87.3475 42.1143 79.6065 42.1143C78.475 42.1143 77.3753 41.9792 76.3216 41.7262L75.9655 43.8024C75.4744 46.6654 78.4796 48.8488 81.0508 47.497L85.914 44.9403L90.7771 47.497C93.3483 48.8488 96.3535 46.6654 95.8624 43.8024L94.9335 38.387L98.868 34.5519C100.948 32.5244 99.8004 28.9917 96.9257 28.5739Z" fill="url(#paint3_linear)"/>
<path d="M56.7959 22.857L59.2274 27.7839L64.6646 28.574C67.5393 28.9917 68.6872 32.5244 66.6071 34.5521L62.6726 38.3873L63.6015 43.8026C64.0926 46.6657 61.0874 48.849 58.5162 47.4972L53.6531 44.9404L48.79 47.497C46.2188 48.8488 43.2135 46.6654 43.7047 43.8024L44.6335 38.3871L40.6991 34.5519C38.619 32.5242 39.7667 28.9915 42.6416 28.5737L48.0787 27.7837L50.5103 22.8568C51.7958 20.2521 55.5104 20.2521 56.7959 22.857Z" fill="url(#paint4_linear)"/>
<path d="M64.6648 28.5739L61.362 28.094V28.0979C61.362 35.8391 55.0866 42.1143 47.3457 42.1143C46.2142 42.1143 45.1145 41.9792 44.0607 41.7262L43.7047 43.8024C43.2135 46.6654 46.2188 48.8488 48.79 47.497L53.6531 44.9403L58.5162 47.497C61.0874 48.8488 64.0926 46.6654 63.6015 43.8024L62.6727 38.387L66.6071 34.5519C68.6874 32.5244 67.5395 28.9917 64.6648 28.5739Z" fill="url(#paint5_linear)"/>
<path d="M23.6133 22.857L26.0448 27.7839L31.482 28.574C34.3567 28.9917 35.5046 32.5244 33.4245 34.5521L29.49 38.3873L30.4189 43.8026C30.91 46.6657 27.9048 48.849 25.3336 47.4972L20.4705 44.9404L15.6074 47.497C13.0361 48.8488 10.0309 46.6654 10.5221 43.8024L11.4509 38.3871L7.51645 34.5519C5.43636 32.5242 6.58407 28.9915 9.45895 28.5737L14.8961 27.7837L17.3277 22.8568C18.6132 20.2521 22.3278 20.2521 23.6133 22.857Z" fill="url(#paint6_linear)"/>
<path d="M31.4822 28.5739L28.1794 28.094V28.0979C28.1794 35.8391 21.904 42.1143 14.1631 42.1143C13.0316 42.1143 11.9319 41.9792 10.8781 41.7262L10.5221 43.8024C10.0309 46.6654 13.0361 48.8488 15.6074 47.497L20.4705 44.9403L25.3336 47.497C27.9048 48.8488 30.91 46.6654 30.4189 43.8024L29.49 38.387L33.4245 34.5519C35.5048 32.5244 34.3569 28.9917 31.4822 28.5739Z" fill="url(#paint7_linear)"/>
<path d="M48.9787 54.0295H92.1692C95.3772 54.0295 97.978 56.6303 97.978 59.8383V85.0909C97.978 88.2989 95.3772 90.8997 92.1692 90.8997C89.6603 90.8997 87.6263 92.9336 87.6263 95.4425V96.0496C87.6263 100.638 82.079 102.935 78.8348 99.6912L71.5515 92.408C70.5857 91.4422 69.2759 90.8997 67.9099 90.8997H48.9787C45.7707 90.8997 43.1699 88.2989 43.1699 85.0909V59.8383C43.1699 56.6303 45.7707 54.0295 48.9787 54.0295Z" fill="url(#paint8_linear)"/>
<path d="M92.1693 54.0295H83.8514C87.0595 54.0295 89.6602 56.6303 89.6602 59.8383V85.0909C89.6602 88.2989 87.0595 90.8997 83.8514 90.8997C81.3425 90.8997 79.3086 92.9336 79.3086 95.4425V96.0498C79.3086 97.2624 78.9187 98.3126 78.2887 99.1452L78.8349 99.6914C82.0791 102.936 87.6265 100.638 87.6265 96.0498V95.4425C87.6265 92.9336 89.6604 90.8997 92.1693 90.8997C95.3773 90.8997 97.9781 88.2989 97.9781 85.0909V59.8383C97.9781 56.6303 95.3773 54.0295 92.1693 54.0295Z" fill="url(#paint9_linear)"/>
</g>
<defs>
<linearGradient id="paint0_linear" x1="0.00195313" y1="41.4782" x2="109.228" y2="41.4782" gradientUnits="userSpaceOnUse">
<stop stop-color="#DFECFF"/>
<stop offset="1" stop-color="#92B8F3"/>
</linearGradient>
<linearGradient id="paint1_linear" x1="88.7129" y1="35.9862" x2="108.93" y2="35.9862" gradientUnits="userSpaceOnUse">
<stop stop-color="#8CB7FC"/>
<stop offset="1" stop-color="#6FA0ED"/>
</linearGradient>
<linearGradient id="paint2_linear" x1="67.9647" y1="34.4055" x2="105.343" y2="34.4055" gradientUnits="userSpaceOnUse">
<stop stop-color="#8FBAFD"/>
<stop offset="1" stop-color="#B8D2FC"/>
</linearGradient>
<linearGradient id="paint3_linear" x1="72.5426" y1="38.0007" x2="104.568" y2="38.0007" gradientUnits="userSpaceOnUse">
<stop stop-color="#A6C3F2"/>
<stop offset="0.645833" stop-color="#95BBF8"/>
<stop offset="1" stop-color="#7FAAEF"/>
</linearGradient>
<linearGradient id="paint4_linear" x1="35.7039" y1="34.4055" x2="73.0825" y2="34.4055" gradientUnits="userSpaceOnUse">
<stop stop-color="#8FBAFD"/>
<stop offset="1" stop-color="#B8D2FC"/>
</linearGradient>
<linearGradient id="paint5_linear" x1="40.2817" y1="38.0007" x2="72.3075" y2="38.0007" gradientUnits="userSpaceOnUse">
<stop stop-color="#A6C3F2"/>
<stop offset="0.645833" stop-color="#95BBF8"/>
<stop offset="1" stop-color="#7FAAEF"/>
</linearGradient>
<linearGradient id="paint6_linear" x1="2.52124" y1="34.4055" x2="39.8999" y2="34.4055" gradientUnits="userSpaceOnUse">
<stop stop-color="#8FBAFD"/>
<stop offset="1" stop-color="#B8D2FC"/>
</linearGradient>
<linearGradient id="paint7_linear" x1="7.09913" y1="38.0007" x2="39.1249" y2="38.0007" gradientUnits="userSpaceOnUse">
<stop stop-color="#A6C3F2"/>
<stop offset="0.645833" stop-color="#95BBF8"/>
<stop offset="1" stop-color="#7FAAEF"/>
</linearGradient>
<linearGradient id="paint8_linear" x1="43.1699" y1="77.6198" x2="97.978" y2="77.6198" gradientUnits="userSpaceOnUse">
<stop stop-color="#FAFCFF"/>
<stop offset="0.593" stop-color="#CAE2FA"/>
<stop offset="1" stop-color="#BCD7F8"/>
</linearGradient>
<linearGradient id="paint9_linear" x1="80.7516" y1="77.6199" x2="99.6194" y2="77.6199" gradientUnits="userSpaceOnUse">
<stop stop-color="#C0D5FF"/>
<stop offset="0.5484" stop-color="#94BBF4"/>
<stop offset="1" stop-color="#93B4F5"/>
</linearGradient>
<clipPath id="clip0">
<rect width="106" height="106" fill="white" transform="translate(0.00195312)"/>
</clipPath>
</defs>
</svg>
